<svg width="56" height="56" viewBox="0 0 56 56" fill="none" xmlns="http://www.w3.org/2000/svg">
<path fill-rule="evenodd" clip-rule="evenodd" d="M42 28C42 28.4641 41.8156 28.9092 41.4874 29.2374C41.1592 29.5656 40.7141 29.75 40.25 29.75H19.9745L27.489 37.261C27.6517 37.4237 27.7808 37.6169 27.8688 37.8295C27.9569 38.042 28.0022 38.2699 28.0022 38.5C28.0022 38.7301 27.9569 38.958 27.8688 39.1705C27.7808 39.3831 27.6517 39.5763 27.489 39.739C27.3263 39.9017 27.1331 40.0308 26.9205 40.1188C26.7079 40.2069 26.4801 40.2522 26.25 40.2522C26.0199 40.2522 25.792 40.2069 25.5794 40.1188C25.3669 40.0308 25.1737 39.9017 25.011 39.739L14.511 29.239C14.348 29.0764 14.2187 28.8833 14.1305 28.6707C14.0423 28.4581 13.9969 28.2302 13.9969 28C13.9969 27.7698 14.0423 27.5419 14.1305 27.3293C14.2187 27.1167 14.348 26.9236 14.511 26.761L25.011 16.261C25.3396 15.9324 25.7853 15.7478 26.25 15.7478C26.7147 15.7478 27.1604 15.9324 27.489 16.261C27.8176 16.5896 28.0022 17.0353 28.0022 17.5C28.0022 17.9647 27.8176 18.4104 27.489 18.739L19.9745 26.25H40.25C40.7141 26.25 41.1592 26.4344 41.4874 26.7626C41.8156 27.0908 42 27.5359 42 28Z" fill="black"/>
</svg>
