<svg width="56" height="56" viewBox="0 0 56 56" fill="none" xmlns="http://www.w3.org/2000/svg">
<path d="M28.3363 42.3363C27.7911 42.3373 27.2627 42.1474 26.8429 41.7996L12.8429 30.1329C12.3664 29.7369 12.0668 29.1677 12.0099 28.5507C11.953 27.9337 12.1435 27.3194 12.5396 26.8429C12.9356 26.3664 13.5048 26.0668 14.1218 26.0099C14.7388 25.953 15.3531 26.1435 15.8296 26.5396L28.3363 36.9929L40.8429 26.9129C41.0816 26.7191 41.3562 26.5744 41.651 26.487C41.9458 26.3997 42.2549 26.3715 42.5607 26.404C42.8664 26.4365 43.1627 26.5291 43.4325 26.6765C43.7023 26.8239 43.9404 27.0232 44.1329 27.2629C44.3466 27.5028 44.5084 27.7843 44.6083 28.0897C44.7081 28.395 44.7439 28.7177 44.7132 29.0376C44.6825 29.3574 44.5861 29.6674 44.4301 29.9482C44.274 30.2291 44.0616 30.4747 43.8063 30.6696L29.8063 41.9396C29.3744 42.2325 28.8568 42.3721 28.3363 42.3363Z" fill="black"/>
<path d="M28.3363 30.3363C27.7911 30.3373 27.2627 30.1474 26.8429 29.7996L12.8429 18.1329C12.3664 17.7369 12.0668 17.1677 12.0099 16.5507C11.953 15.9337 12.1435 15.3194 12.5396 14.8429C12.9356 14.3664 13.5048 14.0668 14.1218 14.0099C14.7388 13.953 15.3531 14.1435 15.8296 14.5396L28.3363 24.9929L40.8429 14.9129C41.0816 14.7191 41.3562 14.5744 41.651 14.487C41.9458 14.3997 42.2549 14.3715 42.5607 14.404C42.8664 14.4365 43.1627 14.5291 43.4325 14.6765C43.7023 14.8239 43.9404 15.0232 44.1329 15.2629C44.3466 15.5028 44.5084 15.7843 44.6083 16.0897C44.7081 16.395 44.7439 16.7177 44.7132 17.0376C44.6825 17.3574 44.5861 17.6674 44.4301 17.9482C44.274 18.2291 44.0616 18.4747 43.8063 18.6696L29.8063 29.9396C29.3744 30.2325 28.8568 30.3721 28.3363 30.3363Z" fill="black"/>
</svg>
