<svg width="56" height="56" viewBox="0 0 56 56" fill="none" xmlns="http://www.w3.org/2000/svg">
<path d="M28 9.33334C35.3943 9.33334 39.5873 14.2287 40.1963 20.1367H40.383C41.5133 20.1348 42.633 20.3558 43.6779 20.7868C44.7228 21.2179 45.6726 21.8507 46.4728 22.649C47.2731 23.4473 47.9082 24.3955 48.3418 25.4394C48.7754 26.4832 48.9991 27.6023 49 28.7327C48.9988 29.8628 48.7749 30.9817 48.3411 32.0253C47.9074 33.0689 47.2722 34.0168 46.472 34.8148C45.6718 35.6129 44.7221 36.2455 43.6774 36.6764C42.6326 37.1073 41.5132 37.3282 40.383 37.3263H39.025L35.3337 43.4723C35.1118 43.856 34.7526 44.1412 34.3285 44.2704C33.9045 44.3995 33.4473 44.3629 33.0492 44.168C32.6511 43.9731 32.3418 43.6344 32.1838 43.2203C32.0257 42.8062 32.0307 42.3476 32.1977 41.937L32.3027 41.7223L34.9837 37.3263H29.9997L26.3083 43.4723C26.0864 43.856 25.7272 44.1412 25.3032 44.2704C24.8792 44.3995 24.422 44.3629 24.0239 44.168C23.6258 43.9731 23.3165 43.6344 23.1584 43.2203C23.0004 42.8062 23.0054 42.3476 23.1723 41.937L23.2773 41.7223L25.9583 37.3263H20.972L17.2807 43.47C17.0568 43.8497 16.6979 44.1309 16.2757 44.2574C15.8535 44.384 15.3991 44.3466 15.0033 44.1526C14.6075 43.9587 14.2994 43.6226 14.1407 43.2114C13.9819 42.8002 13.9842 42.3443 14.147 41.9347L14.2497 41.72L16.9307 37.324H15.617C14.4868 37.3258 13.3674 37.105 12.3226 36.6741C11.2779 36.2431 10.3282 35.6106 9.52801 34.8125C8.72778 34.0144 8.09265 33.0665 7.65888 32.0229C7.22512 30.9793 7.00122 29.8605 7 28.7303C7.00153 27.6006 7.22557 26.4822 7.65933 25.439C8.09308 24.3958 8.72806 23.4483 9.52801 22.6505C10.328 21.8527 11.2772 21.2203 12.3216 20.7894C13.3659 20.3585 14.4849 20.1375 15.6147 20.139H15.8013C16.4173 14.1867 20.608 9.33334 28 9.33334ZM28 12.8287C23.1677 12.8287 18.9537 16.6413 18.9537 21.9053C18.9537 22.7383 18.2093 23.3917 17.3577 23.3917H15.7477C12.8053 23.3917 10.4183 25.7297 10.4183 28.6113C10.4183 31.493 12.8053 33.8287 15.7477 33.8287H40.2547C43.1947 33.8287 45.5817 31.493 45.5817 28.6113C45.5817 25.7297 43.1947 23.3917 40.2523 23.3917H38.6423C37.7907 23.3917 37.0463 22.7383 37.0463 21.9053C37.0463 16.5737 32.8323 12.8287 28 12.8287Z" fill="black"/>
</svg>
