<svg width="56" height="56" viewBox="0 0 56 56" fill="none" xmlns="http://www.w3.org/2000/svg">
<path d="M25.0833 46.6737C25.5474 46.6737 25.9926 46.858 26.3208 47.1862C26.6489 47.5144 26.8333 47.9595 26.8333 48.4237C26.8333 48.8878 26.6489 49.3329 26.3208 49.6611C25.9926 49.9893 25.5474 50.1737 25.0833 50.1737C24.6192 50.1737 24.1741 49.9893 23.8459 49.6611C23.5177 49.3329 23.3333 48.8878 23.3333 48.4237C23.3333 47.9595 23.5177 47.5144 23.8459 47.1862C24.1741 46.858 24.6192 46.6737 25.0833 46.6737ZM35.5833 46.6737C36.0474 46.6737 36.4926 46.858 36.8208 47.1862C37.1489 47.5144 37.3333 47.9595 37.3333 48.4237C37.3333 48.8878 37.1489 49.3329 36.8208 49.6611C36.4926 49.9893 36.0474 50.1737 35.5833 50.1737C35.1192 50.1737 34.6741 49.9893 34.3459 49.6611C34.0177 49.3329 33.8333 48.8878 33.8333 48.4237C33.8333 47.9595 34.0177 47.5144 34.3459 47.1862C34.6741 46.858 35.1192 46.6737 35.5833 46.6737ZM19.8333 44.3403C20.2974 44.3403 20.7426 44.5247 21.0708 44.8529C21.3989 45.1811 21.5833 45.6262 21.5833 46.0903C21.5833 46.5544 21.3989 46.9996 21.0708 47.3278C20.7426 47.6559 20.2974 47.8403 19.8333 47.8403C19.3692 47.8403 18.9241 47.6559 18.5959 47.3278C18.2677 46.9996 18.0833 46.5544 18.0833 46.0903C18.0833 45.6262 18.2677 45.1811 18.5959 44.8529C18.9241 44.5247 19.3692 44.3403 19.8333 44.3403ZM30.3333 44.3403C30.7974 44.3403 31.2426 44.5247 31.5708 44.8529C31.8989 45.1811 32.0833 45.6262 32.0833 46.0903C32.0833 46.5544 31.8989 46.9996 31.5708 47.3278C31.2426 47.6559 30.7974 47.8403 30.3333 47.8403C29.8692 47.8403 29.4241 47.6559 29.0959 47.3278C28.7677 46.9996 28.5833 46.5544 28.5833 46.0903C28.5833 45.6262 28.7677 45.1811 29.0959 44.8529C29.4241 44.5247 29.8692 44.3403 30.3333 44.3403ZM40.8333 44.3403C41.2974 44.3403 41.7426 44.5247 42.0708 44.8529C42.3989 45.1811 42.5833 45.6262 42.5833 46.0903C42.5833 46.5544 42.3989 46.9996 42.0708 47.3278C41.7426 47.6559 41.2974 47.8403 40.8333 47.8403C40.3692 47.8403 39.9241 47.6559 39.5959 47.3278C39.2677 46.9996 39.0833 46.5544 39.0833 46.0903C39.0833 45.6262 39.2677 45.1811 39.5959 44.8529C39.9241 44.5247 40.3692 44.3403 40.8333 44.3403ZM30.3357 14.0397C37.73 14.0397 41.923 18.935 42.5343 24.843H42.721C43.8507 24.8418 44.9697 25.0631 46.0139 25.4943C47.0582 25.9255 48.0072 26.5581 48.807 27.3561C49.6067 28.1541 50.2414 29.1018 50.6749 30.1451C51.1084 31.1884 51.3321 32.3069 51.3333 33.4367C51.3321 34.5666 51.1083 35.6853 50.6747 36.7287C50.241 37.7722 49.6061 38.72 48.8061 39.518C48.0062 40.316 47.0568 40.9486 46.0123 41.3797C44.9678 41.8108 43.8486 42.0319 42.7187 42.0303H17.9527C16.8227 42.0319 15.7035 41.8108 14.659 41.3797C13.6145 40.9486 12.6651 40.316 11.8652 39.518C11.0652 38.72 10.4303 37.7722 9.99664 36.7287C9.56302 35.6853 9.33921 34.5666 9.33799 33.4367C9.33952 32.3069 9.56356 31.1885 9.99731 30.1453C10.4311 29.1021 11.066 28.1546 11.866 27.3568C12.6659 26.559 13.6152 25.9266 14.6595 25.4957C15.7039 25.0648 16.8229 24.8438 17.9527 24.8453H18.1393C18.753 18.8953 22.9437 14.042 30.3357 14.042V14.0397ZM30.3357 17.535C25.5033 17.535 21.2893 21.3453 21.2893 26.6117C21.2893 27.4447 20.545 28.098 19.6933 28.098H18.0833C15.141 28.098 12.754 30.436 12.754 33.3177C12.754 36.1993 15.141 38.535 18.0833 38.535H42.5903C45.5303 38.535 47.9173 36.1993 47.9173 33.3177C47.9173 30.4337 45.5303 28.098 42.588 28.098H40.978C40.1263 28.098 39.382 27.4447 39.382 26.6093C39.382 21.2777 35.168 17.535 30.3357 17.535ZM15.372 4.68998C17.2313 4.78956 19.0407 5.32766 20.6523 6.26032C23.0202 7.62253 24.8419 9.76426 25.8067 12.32C24.64 12.6467 23.5597 13.1063 22.5727 13.6827C22.1538 12.5118 21.4771 11.4501 20.5926 10.5761C19.7081 9.70209 18.6384 9.03812 17.4627 8.63332C17.836 11.7857 17.3507 14.497 16.009 17.0567L15.7337 17.556C14.4037 19.8333 12.3923 21.539 9.39165 22.932C10.1347 23.5492 10.9784 24.0339 11.886 24.3647C10.8348 25.0701 9.91486 25.9537 9.16765 26.9757L8.80599 26.7773C7.28169 25.8998 5.97269 24.6929 4.97465 23.2446C4.82193 23.0238 4.72208 22.7707 4.68284 22.5051C4.64359 22.2394 4.66601 21.9683 4.74835 21.7127C4.83069 21.4571 4.97075 21.2239 5.15767 21.0311C5.3446 20.8384 5.57339 20.6912 5.82632 20.601C9.65999 19.229 11.725 17.6843 12.9057 15.4327C14.196 12.971 14.434 10.36 13.5777 6.85065C13.5127 6.58512 13.5109 6.30807 13.5723 6.04171C13.6338 5.77534 13.7567 5.52707 13.9314 5.3168C14.1061 5.10652 14.3276 4.94008 14.5781 4.83083C14.8287 4.72157 15.1014 4.67254 15.3743 4.68765L15.372 4.68998Z" fill="black"/>
</svg>
