<svg width="56" height="56" viewBox="0 0 56 56" fill="none" xmlns="http://www.w3.org/2000/svg">
<path d="M25.0833 46.6667C25.5475 46.6667 25.9926 46.851 26.3208 47.1792C26.649 47.5074 26.8333 47.9525 26.8333 48.4167C26.8333 48.8808 26.649 49.3259 26.3208 49.6541C25.9926 49.9823 25.5475 50.1667 25.0833 50.1667C24.6192 50.1667 24.1741 49.9823 23.8459 49.6541C23.5177 49.3259 23.3333 48.8808 23.3333 48.4167C23.3333 47.9525 23.5177 47.5074 23.8459 47.1792C24.1741 46.851 24.6192 46.6667 25.0833 46.6667ZM35.5833 46.6667C36.0475 46.6667 36.4926 46.851 36.8208 47.1792C37.149 47.5074 37.3333 47.9525 37.3333 48.4167C37.3333 48.8808 37.149 49.3259 36.8208 49.6541C36.4926 49.9823 36.0475 50.1667 35.5833 50.1667C35.1192 50.1667 34.6741 49.9823 34.3459 49.6541C34.0177 49.3259 33.8333 48.8808 33.8333 48.4167C33.8333 47.9525 34.0177 47.5074 34.3459 47.1792C34.6741 46.851 35.1192 46.6667 35.5833 46.6667ZM19.8333 44.3333C20.2975 44.3333 20.7426 44.5177 21.0708 44.8459C21.399 45.1741 21.5833 45.6192 21.5833 46.0833C21.5833 46.5474 21.399 46.9926 21.0708 47.3208C20.7426 47.6489 20.2975 47.8333 19.8333 47.8333C19.3692 47.8333 18.9241 47.6489 18.5959 47.3208C18.2677 46.9926 18.0833 46.5474 18.0833 46.0833C18.0833 45.6192 18.2677 45.1741 18.5959 44.8459C18.9241 44.5177 19.3692 44.3333 19.8333 44.3333ZM30.3333 44.3333C30.7975 44.3333 31.2426 44.5177 31.5708 44.8459C31.899 45.1741 32.0833 45.6192 32.0833 46.0833C32.0833 46.5474 31.899 46.9926 31.5708 47.3208C31.2426 47.6489 30.7975 47.8333 30.3333 47.8333C29.8692 47.8333 29.4241 47.6489 29.0959 47.3208C28.7677 46.9926 28.5833 46.5474 28.5833 46.0833C28.5833 45.6192 28.7677 45.1741 29.0959 44.8459C29.4241 44.5177 29.8692 44.3333 30.3333 44.3333ZM40.8333 44.3333C41.2975 44.3333 41.7426 44.5177 42.0708 44.8459C42.399 45.1741 42.5833 45.6192 42.5833 46.0833C42.5833 46.5474 42.399 46.9926 42.0708 47.3208C41.7426 47.6489 41.2975 47.8333 40.8333 47.8333C40.3692 47.8333 39.9241 47.6489 39.5959 47.3208C39.2677 46.9926 39.0833 46.5474 39.0833 46.0833C39.0833 45.6192 39.2677 45.1741 39.5959 44.8459C39.9241 44.5177 40.3692 44.3333 40.8333 44.3333ZM30.338 14.0233C37.7323 14.0233 41.9253 18.9163 42.5367 24.8267H42.7233C43.8533 24.8251 44.9725 25.0462 46.017 25.4773C47.0615 25.9083 48.0109 26.541 48.8108 27.339C49.6108 28.137 50.2457 29.0848 50.6794 30.1283C51.113 31.1717 51.3368 32.2904 51.338 33.4203C51.3365 34.5501 51.1124 35.6685 50.6787 36.7117C50.2449 37.7548 49.6099 38.7024 48.81 39.5001C48.0101 40.2979 47.0608 40.9303 46.0165 41.3613C44.9721 41.7922 43.8531 42.0132 42.7233 42.0117H17.9527C16.8229 42.0132 15.7039 41.7922 14.6596 41.3613C13.6152 40.9303 12.666 40.2979 11.866 39.5001C11.0661 38.7024 10.4311 37.7548 9.99734 36.7117C9.56358 35.6685 9.33954 34.5501 9.33801 33.4203C9.33924 32.2904 9.56305 31.1717 9.99667 30.1283C10.4303 29.0848 11.0652 28.137 11.8652 27.339C12.6652 26.541 13.6145 25.9083 14.659 25.4773C15.7035 25.0462 16.8227 24.8251 17.9527 24.8267H18.1393C18.753 18.8767 22.9437 14.0233 30.3357 14.0233H30.338ZM30.338 17.5187C25.5057 17.5187 21.2917 21.329 21.2917 26.593C21.2917 27.426 20.5473 28.0817 19.6957 28.0817H18.0857C15.1433 28.0817 12.7563 30.4173 12.7563 33.299C12.7563 36.1807 15.1433 38.5187 18.0857 38.5187H42.5927C45.5327 38.5187 47.9197 36.1807 47.9197 33.299C47.9197 30.4173 45.535 28.0817 42.5927 28.0817H40.9803C40.1287 28.0817 39.3843 27.4283 39.3843 26.593C39.3843 21.2613 35.1703 17.5163 30.338 17.5163V17.5187ZM10.192 23.7207C10.3534 24.1114 10.3679 24.5474 10.2328 24.948C10.0977 25.3486 9.82211 25.6868 9.45701 25.9L9.24468 26.0073L7.08401 26.901C6.67449 27.0702 6.21603 27.0777 5.80116 26.9221C5.38629 26.7665 5.0459 26.4593 4.84869 26.0625C4.65148 25.6657 4.61213 25.2088 4.73858 24.7842C4.86503 24.3595 5.14787 23.9986 5.53001 23.7743L5.74468 23.667L7.90534 22.7733C8.11769 22.6854 8.34528 22.6401 8.57513 22.6401C8.80497 22.6401 9.03256 22.6854 9.24491 22.7733C9.45725 22.8613 9.65018 22.9902 9.81269 23.1528C9.9752 23.3153 10.1041 23.5083 10.192 23.7207ZM25.3283 12.4413L24.927 12.5767C23.7135 13.002 22.5665 13.5975 21.5203 14.3453C20.3969 13.9804 19.1878 13.9736 18.0604 14.326C16.9329 14.6783 15.9428 15.3724 15.2271 16.3121C14.5114 17.2518 14.1054 18.3907 14.0653 19.5712C14.0252 20.7517 14.353 21.9156 15.0033 22.9017C13.8661 23.2211 12.7893 23.7256 11.816 24.395C10.7466 22.5568 10.3471 20.4049 10.6856 18.3054C11.0241 16.2059 12.0796 14.2886 13.6725 12.8797C15.2654 11.4708 17.2974 10.6574 19.4225 10.5779C21.5476 10.4984 23.6346 11.1577 25.3283 12.4437V12.4413ZM6.86235 12.5137L7.10968 12.5953L9.27035 13.4913C9.67664 13.6616 10.0037 13.9789 10.1864 14.3798C10.369 14.7807 10.3937 15.2358 10.2555 15.6541C10.1173 16.0724 9.8265 16.4232 9.44102 16.6365C9.05555 16.8498 8.60382 16.9098 8.17601 16.8047L7.93335 16.7277L5.77268 15.8317C5.36746 15.6608 5.04141 15.3437 4.8594 14.9434C4.67738 14.5431 4.65275 14.0889 4.79039 13.6713C4.92804 13.2537 5.21788 12.9031 5.60224 12.6895C5.9866 12.4758 6.43731 12.4147 6.86468 12.5183L6.86235 12.5137ZM15.764 5.54632L15.8713 5.75865L16.765 7.92165C16.9318 8.33082 16.9376 8.78792 16.7813 9.2012C16.625 9.61448 16.3182 9.95334 15.9224 10.1498C15.5266 10.3462 15.0712 10.3856 14.6475 10.2601C14.2239 10.1347 13.8633 9.85359 13.6383 9.47332L13.531 9.26099L12.6373 7.09799C12.4706 6.68882 12.4648 6.23172 12.621 5.81844C12.7773 5.40516 13.0842 5.0663 13.48 4.86988C13.8757 4.67347 14.3312 4.63404 14.7548 4.7595C15.1785 4.88497 15.539 5.16605 15.764 5.54632ZM25.9233 4.80432C26.3103 4.96506 26.6267 5.25927 26.8151 5.6335C27.0035 6.00772 27.0513 6.43712 26.95 6.84365L26.8683 7.08865L25.9747 9.25165C25.8044 9.65794 25.4871 9.98505 25.0862 10.1677C24.6853 10.3503 24.2302 10.375 23.8119 10.2368C23.3936 10.0987 23.0428 9.80781 22.8295 9.42233C22.6162 9.03686 22.5562 8.58512 22.6613 8.15732L22.7407 7.91232L23.6367 5.74932C23.8147 5.32085 24.1556 4.98062 24.5844 4.80341C25.0132 4.6262 25.4948 4.62653 25.9233 4.80432Z" fill="black"/>
</svg>
