<svg width="56" height="56" viewBox="0 0 56 56" fill="none" xmlns="http://www.w3.org/2000/svg">
<path d="M30.338 18.6947C37.73 18.6947 41.9253 23.59 42.5343 29.498H42.721C43.851 29.4965 44.9702 29.7175 46.0147 30.1486C47.0592 30.5797 48.0085 31.2123 48.8085 32.0103C49.6085 32.8084 50.2434 33.7562 50.677 34.7996C51.1106 35.8431 51.3344 36.9617 51.3357 38.0917C51.3344 39.2216 51.1106 40.3403 50.677 41.3837C50.2434 42.4272 49.6085 43.375 48.8085 44.173C48.0085 44.971 47.0592 45.6036 46.0147 46.0347C44.9702 46.4658 43.851 46.6869 42.721 46.6853H17.9527C16.8227 46.6869 15.7035 46.4658 14.659 46.0347C13.6145 45.6036 12.6652 44.971 11.8652 44.173C11.0652 43.375 10.4303 42.4272 9.99666 41.3837C9.56304 40.3403 9.33923 39.2216 9.338 38.0917C9.33923 36.9617 9.56304 35.8431 9.99666 34.7996C10.4303 33.7562 11.0652 32.8084 11.8652 32.0103C12.6652 31.2123 13.6145 30.5797 14.659 30.1486C15.7035 29.7175 16.8227 29.4965 17.9527 29.498H18.1393C18.753 23.5503 22.946 18.6947 30.338 18.6947ZM15.3743 9.34499C17.2337 9.44457 19.0431 9.98267 20.6547 10.9153C23.0207 12.2769 24.8415 14.4168 25.8067 16.9703C21.1773 18.284 17.864 21.6417 16.4873 26.18L16.3263 26.754L16.191 27.3093L15.7103 27.398C13.0823 27.9542 10.7523 29.4615 9.16767 31.6307C7.49042 30.7421 6.05211 29.4623 4.97467 27.8997C4.82245 27.6787 4.72308 27.4257 4.68425 27.1602C4.64541 26.8947 4.66814 26.6238 4.75069 26.3685C4.83324 26.1132 4.97338 25.8803 5.1603 25.6878C5.34722 25.4953 5.5759 25.3484 5.82867 25.2583C9.66234 23.8863 11.725 22.3417 12.908 20.09C14.196 17.6283 14.434 15.0173 13.5777 11.508C13.5127 11.2425 13.5109 10.9654 13.5723 10.699C13.6338 10.4327 13.7568 10.1844 13.9314 9.97414C14.1061 9.76386 14.3276 9.59742 14.5781 9.48817C14.8287 9.37892 15.1014 9.32988 15.3743 9.34499Z" fill="black"/>
</svg>
