<svg width="56" height="56" viewBox="0 0 56 56" fill="none" xmlns="http://www.w3.org/2000/svg">
<path d="M46.7273 39.669C40.2827 50.8316 26.0097 54.656 14.847 48.2113C11.8456 46.4828 9.26827 44.1056 7.30333 41.2533C7.15107 41.0325 7.0516 40.7796 7.01261 40.5143C6.97362 40.2489 6.99615 39.9781 7.07846 39.7228C7.16077 39.4676 7.30066 39.2346 7.48732 39.042C7.67399 38.8494 7.90243 38.7023 8.155 38.612C16.9447 35.4667 21.6533 31.822 24.3857 26.6047C27.2603 21.1143 28.0047 15.1013 25.9933 6.85765C25.9285 6.59232 25.9266 6.31549 25.9879 6.04931C26.0492 5.78314 26.172 5.53501 26.3464 5.32478C26.5208 5.11456 26.742 4.94807 26.9922 4.83865C27.2425 4.72923 27.5149 4.67992 27.7877 4.69465C31.45 4.89178 35.0136 5.9528 38.1873 7.79098C49.35 14.2356 53.1743 28.5086 46.7273 39.669Z" fill="black"/>
</svg>
