<svg width="56" height="56" viewBox="0 0 56 56" fill="none" xmlns="http://www.w3.org/2000/svg">
<path d="M25.088 46.6667C25.5521 46.6667 25.9973 46.851 26.3254 47.1792C26.6536 47.5074 26.838 47.9525 26.838 48.4167C26.838 48.8808 26.6536 49.3259 26.3254 49.6541C25.9973 49.9823 25.5521 50.1667 25.088 50.1667C24.6239 50.1667 24.1788 49.9823 23.8506 49.6541C23.5224 49.3259 23.338 48.8808 23.338 48.4167C23.338 47.9525 23.5224 47.5074 23.8506 47.1792C24.1788 46.851 24.6239 46.6667 25.088 46.6667ZM35.588 46.6667C36.0521 46.6667 36.4973 46.851 36.8254 47.1792C37.1536 47.5074 37.338 47.9525 37.338 48.4167C37.338 48.8808 37.1536 49.3259 36.8254 49.6541C36.4973 49.9823 36.0521 50.1667 35.588 50.1667C35.1239 50.1667 34.6788 49.9823 34.3506 49.6541C34.0224 49.3259 33.838 48.8808 33.838 48.4167C33.838 47.9525 34.0224 47.5074 34.3506 47.1792C34.6788 46.851 35.1239 46.6667 35.588 46.6667ZM19.838 44.3333C20.3021 44.3333 20.7473 44.5177 21.0754 44.8459C21.4036 45.1741 21.588 45.6192 21.588 46.0833C21.588 46.5475 21.4036 46.9926 21.0754 47.3208C20.7473 47.6489 20.3021 47.8333 19.838 47.8333C19.3739 47.8333 18.9288 47.6489 18.6006 47.3208C18.2724 46.9926 18.088 46.5475 18.088 46.0833C18.088 45.6192 18.2724 45.1741 18.6006 44.8459C18.9288 44.5177 19.3739 44.3333 19.838 44.3333ZM30.338 44.3333C30.8021 44.3333 31.2473 44.5177 31.5754 44.8459C31.9036 45.1741 32.088 45.6192 32.088 46.0833C32.088 46.5475 31.9036 46.9926 31.5754 47.3208C31.2473 47.6489 30.8021 47.8333 30.338 47.8333C29.8739 47.8333 29.4288 47.6489 29.1006 47.3208C28.7724 46.9926 28.588 46.5475 28.588 46.0833C28.588 45.6192 28.7724 45.1741 29.1006 44.8459C29.4288 44.5177 29.8739 44.3333 30.338 44.3333ZM40.838 44.3333C41.3021 44.3333 41.7473 44.5177 42.0754 44.8459C42.4036 45.1741 42.588 45.6192 42.588 46.0833C42.588 46.5475 42.4036 46.9926 42.0754 47.3208C41.7473 47.6489 41.3021 47.8333 40.838 47.8333C40.3739 47.8333 39.9288 47.6489 39.6006 47.3208C39.2724 46.9926 39.088 46.5475 39.088 46.0833C39.088 45.6192 39.2724 45.1741 39.6006 44.8459C39.9288 44.5177 40.3739 44.3333 40.838 44.3333ZM30.338 14.0233C37.7323 14.0233 41.9253 18.9187 42.5367 24.8267H42.7233C43.8533 24.8251 44.9725 25.0462 46.017 25.4773C47.0615 25.9083 48.0108 26.541 48.8108 27.339C49.6108 28.137 50.2457 29.0848 50.6794 30.1283C51.113 31.1717 51.3368 32.2904 51.338 33.4203C51.3368 34.5503 51.113 35.6689 50.6794 36.7124C50.2457 37.7558 49.6108 38.7036 48.8108 39.5017C48.0108 40.2997 47.0615 40.9323 46.017 41.3634C44.9725 41.7944 43.8533 42.0155 42.7233 42.014H17.9527C16.8227 42.0155 15.7035 41.7944 14.659 41.3634C13.6145 40.9323 12.6652 40.2997 11.8652 39.5017C11.0652 38.7036 10.4303 37.7558 9.99667 36.7124C9.56305 35.6689 9.33923 34.5503 9.33801 33.4203C9.33923 32.2904 9.56305 31.1717 9.99667 30.1283C10.4303 29.0848 11.0652 28.137 11.8652 27.339C12.6652 26.541 13.6145 25.9083 14.659 25.4773C15.7035 25.0462 16.8227 24.8251 17.9527 24.8267H18.1393C18.753 18.879 22.9437 14.0233 30.3357 14.0233H30.338ZM10.192 23.7207C10.3534 24.1114 10.3679 24.5474 10.2328 24.948C10.0977 25.3486 9.82211 25.6868 9.45701 25.9L9.24468 26.0073L7.08401 26.901C6.67448 27.0702 6.21603 27.0777 5.80116 26.9221C5.38629 26.7665 5.0459 26.4593 4.84869 26.0625C4.65148 25.6657 4.61213 25.2088 4.73858 24.7842C4.86503 24.3595 5.14787 23.9986 5.53001 23.7743L5.74468 23.6693L7.90534 22.7733C8.11769 22.6854 8.34528 22.6401 8.57513 22.6401C8.80497 22.6401 9.03256 22.6854 9.2449 22.7733C9.45725 22.8613 9.65018 22.9902 9.81269 23.1528C9.97519 23.3153 10.1041 23.5083 10.192 23.7207ZM25.3283 12.4437L24.927 12.5767C20.7667 14.0467 17.7823 17.2573 16.492 21.497L16.3287 22.0803L16.1933 22.638L15.7127 22.7267C14.3165 23.0205 12.9922 23.5875 11.816 24.395C10.7466 22.5569 10.3471 20.4049 10.6856 18.3054C11.0241 16.206 12.0796 14.2886 13.6725 12.8797C15.2654 11.4708 17.2974 10.6574 19.4225 10.5779C21.5476 10.4984 23.6346 11.1577 25.3283 12.4437ZM6.86234 12.5137L7.10968 12.5977L9.27034 13.4913C9.68053 13.659 10.0118 13.9761 10.1973 14.3786C10.3828 14.781 10.4088 15.2388 10.2699 15.6596C10.131 16.0805 9.83762 16.4329 9.449 16.6459C9.06038 16.8588 8.60544 16.9164 8.17601 16.807L7.93334 16.7253L5.77268 15.8293C5.36746 15.6585 5.04141 15.3414 4.85939 14.9411C4.67738 14.5408 4.65274 14.0866 4.79039 13.669C4.92804 13.2513 5.21788 12.9008 5.60224 12.6872C5.9866 12.4735 6.4373 12.4124 6.86468 12.516L6.86234 12.5137ZM15.764 5.54633L15.8713 5.76099L16.765 7.92166C16.9318 8.33082 16.9376 8.78792 16.7813 9.2012C16.625 9.61448 16.3182 9.95334 15.9224 10.1498C15.5266 10.3462 15.0712 10.3856 14.6475 10.2601C14.2239 10.1347 13.8633 9.85359 13.6383 9.47332L13.531 9.26099L12.6373 7.10032C12.4682 6.6908 12.4606 6.23234 12.6162 5.81747C12.7719 5.4026 13.0791 5.06222 13.4759 4.865C13.8727 4.66779 14.3295 4.62844 14.7542 4.75489C15.1788 4.88134 15.5397 5.16418 15.764 5.54633ZM25.9233 4.80432C26.3103 4.96506 26.6267 5.25928 26.8151 5.6335C27.0035 6.00773 27.0513 6.43712 26.95 6.84366L26.8683 7.09099L25.9747 9.25166C25.8044 9.65795 25.4871 9.98506 25.0862 10.1677C24.6853 10.3503 24.2302 10.375 23.8119 10.2368C23.3936 10.0987 23.0428 9.80781 22.8295 9.42234C22.6162 9.03686 22.5562 8.58513 22.6613 8.15733L22.7407 7.91232L23.6367 5.75166C23.7246 5.5393 23.8535 5.34633 24.016 5.18379C24.1785 5.02125 24.3714 4.89231 24.5838 4.80434C24.7961 4.71637 25.0237 4.67109 25.2536 4.67109C25.4834 4.67108 25.711 4.71636 25.9233 4.80432Z" fill="black"/>
</svg>
