<svg width="56" height="56" viewBox="0 0 56 56" fill="none" xmlns="http://www.w3.org/2000/svg">
<path d="M30.338 14.0233C37.7323 14.0233 41.9253 18.9187 42.5367 24.8267H42.7233C43.8533 24.8251 44.9725 25.0462 46.017 25.4773C47.0615 25.9084 48.0108 26.541 48.8108 27.339C49.6108 28.137 50.2457 29.0848 50.6794 30.1283C51.113 31.1717 51.3368 32.2904 51.338 33.4203C51.3368 34.5503 51.113 35.6689 50.6794 36.7124C50.2457 37.7558 49.6108 38.7036 48.8108 39.5017C48.0108 40.2997 47.0615 40.9323 46.017 41.3634C44.9725 41.7944 43.8533 42.0155 42.7233 42.014H41.5193L37.681 48.1413C37.4591 48.525 37.0999 48.8102 36.6759 48.9394C36.2519 49.0685 35.7947 49.0319 35.3966 48.837C34.9985 48.6421 34.6892 48.3034 34.5311 47.8893C34.3731 47.4752 34.378 47.0166 34.545 46.606L34.65 46.3913L37.478 42.0117H32.494L28.6557 48.1413C28.4338 48.525 28.0746 48.8102 27.6506 48.9394C27.2265 49.0685 26.7693 49.0319 26.3712 48.837C25.9732 48.6421 25.6638 48.3034 25.5058 47.8893C25.3477 47.4752 25.3527 47.0166 25.5197 46.606L25.6247 46.3913L28.4527 42.0117H23.4687L19.6303 48.1413C19.4085 48.525 19.0492 48.8102 18.6252 48.9394C18.2012 49.0685 17.744 49.0319 17.3459 48.837C16.9478 48.6421 16.6385 48.3034 16.4805 47.8893C16.3224 47.4752 16.3274 47.0166 16.4943 46.606L16.5993 46.3913L19.4273 42.0117H17.955C16.8252 42.0132 15.7062 41.7922 14.6619 41.3613C13.6175 40.9303 12.6683 40.2979 11.8684 39.5002C11.0684 38.7024 10.4334 37.7548 9.99967 36.7117C9.56591 35.6685 9.34187 34.5501 9.34034 33.4203C9.34157 32.2904 9.56538 31.1717 9.999 30.1283C10.4326 29.0848 11.0676 28.137 11.8675 27.339C12.6675 26.541 13.6169 25.9084 14.6614 25.4773C15.7059 25.0462 16.8251 24.8251 17.955 24.8267H18.1417C18.7553 18.879 22.946 14.0233 30.338 14.0233ZM10.192 23.7207C10.3534 24.1114 10.3679 24.5474 10.2328 24.948C10.0977 25.3486 9.82211 25.6868 9.45701 25.9L9.24468 26.0073L7.08401 26.901C6.67448 27.0702 6.21603 27.0777 5.80116 26.9221C5.38629 26.7665 5.0459 26.4593 4.84869 26.0625C4.65148 25.6657 4.61213 25.2088 4.73858 24.7842C4.86503 24.3595 5.14787 23.9986 5.53001 23.7743L5.74468 23.6693L7.90534 22.7733C8.11769 22.6854 8.34528 22.6401 8.57513 22.6401C8.80497 22.6401 9.03256 22.6854 9.2449 22.7733C9.45725 22.8613 9.65018 22.9902 9.81269 23.1528C9.97519 23.3153 10.1041 23.5083 10.192 23.7207ZM25.3283 12.4437L24.927 12.5767C20.7667 14.0467 17.7823 17.2573 16.492 21.497L16.3287 22.0803L16.1933 22.638L15.7127 22.7267C14.3165 23.0205 12.9922 23.5875 11.816 24.395C10.7466 22.5569 10.3471 20.4049 10.6856 18.3054C11.0241 16.206 12.0796 14.2886 13.6725 12.8797C15.2654 11.4708 17.2974 10.6574 19.4225 10.5779C21.5476 10.4984 23.6346 11.1577 25.3283 12.4437ZM6.86234 12.5137L7.10968 12.5977L9.27034 13.4913C9.68053 13.659 10.0118 13.9761 10.1973 14.3786C10.3828 14.781 10.4088 15.2388 10.2699 15.6596C10.131 16.0805 9.83762 16.4329 9.449 16.6459C9.06038 16.8588 8.60544 16.9164 8.17601 16.807L7.93334 16.7253L5.77268 15.8293C5.36746 15.6585 5.04141 15.3414 4.85939 14.9411C4.67738 14.5408 4.65274 14.0866 4.79039 13.669C4.92804 13.2513 5.21788 12.9008 5.60224 12.6872C5.9866 12.4735 6.4373 12.4124 6.86468 12.516L6.86234 12.5137ZM15.764 5.54633L15.8713 5.761L16.765 7.92166C16.9318 8.33083 16.9376 8.78793 16.7813 9.20121C16.625 9.61449 16.3182 9.95335 15.9224 10.1498C15.5266 10.3462 15.0712 10.3856 14.6475 10.2601C14.2239 10.1347 13.8633 9.85359 13.6383 9.47333L13.531 9.261L12.6373 7.10033C12.4682 6.6908 12.4606 6.23234 12.6162 5.81748C12.7719 5.40261 13.0791 5.06222 13.4759 4.86501C13.8727 4.6678 14.3295 4.62845 14.7542 4.7549C15.1788 4.88135 15.5397 5.16419 15.764 5.54633ZM25.9233 4.80433C26.3103 4.96507 26.6267 5.25928 26.8151 5.63351C27.0035 6.00773 27.0513 6.43713 26.95 6.84366L26.8683 7.091L25.9747 9.25166C25.8044 9.65795 25.4871 9.98506 25.0862 10.1677C24.6853 10.3503 24.2302 10.375 23.8119 10.2368C23.3936 10.0987 23.0428 9.80781 22.8295 9.42234C22.6162 9.03687 22.5562 8.58513 22.6613 8.15733L22.7407 7.91233L23.6367 5.75166C23.7246 5.5393 23.8535 5.34634 24.016 5.18379C24.1785 5.02125 24.3714 4.89231 24.5838 4.80434C24.7961 4.71637 25.0237 4.67109 25.2536 4.67109C25.4834 4.67109 25.711 4.71636 25.9233 4.80433Z" fill="black"/>
</svg>
