<svg width="56" height="56" viewBox="0 0 56 56" fill="none" xmlns="http://www.w3.org/2000/svg">
<path d="M28 4.66667C28.4641 4.66667 28.9092 4.85104 29.2374 5.17923C29.5656 5.50742 29.75 5.95254 29.75 6.41667V9.91667C29.75 10.3808 29.5656 10.8259 29.2374 11.1541C28.9092 11.4823 28.4641 11.6667 28 11.6667C27.5359 11.6667 27.0907 11.4823 26.7626 11.1541C26.4344 10.8259 26.25 10.3808 26.25 9.91667V6.41667C26.25 5.95254 26.4344 5.50742 26.7626 5.17923C27.0907 4.85104 27.5359 4.66667 28 4.66667ZM28 39.6667C31.0942 39.6667 34.0616 38.4375 36.2496 36.2496C38.4375 34.0617 39.6667 31.0942 39.6667 28C39.6667 24.9058 38.4375 21.9383 36.2496 19.7504C34.0616 17.5625 31.0942 16.3333 28 16.3333C24.9058 16.3333 21.9383 17.5625 19.7504 19.7504C17.5625 21.9383 16.3333 24.9058 16.3333 28C16.3333 31.0942 17.5625 34.0617 19.7504 36.2496C21.9383 38.4375 24.9058 39.6667 28 39.6667ZM28 36.1667C26.9275 36.1667 25.8656 35.9554 24.8747 35.545C23.8839 35.1346 22.9836 34.5331 22.2253 33.7747C21.4669 33.0164 20.8654 32.1161 20.455 31.1252C20.0446 30.1344 19.8333 29.0725 19.8333 28C19.8333 26.9275 20.0446 25.8656 20.455 24.8748C20.8654 23.8839 21.4669 22.9836 22.2253 22.2253C22.9836 21.467 23.8839 20.8654 24.8747 20.455C25.8656 20.0446 26.9275 19.8333 28 19.8333C30.1659 19.8333 32.2431 20.6938 33.7747 22.2253C35.3062 23.7568 36.1667 25.8341 36.1667 28C36.1667 30.1659 35.3062 32.2432 33.7747 33.7747C32.2431 35.3063 30.1659 36.1667 28 36.1667ZM49.5833 29.75C50.0475 29.75 50.4926 29.5656 50.8208 29.2374C51.149 28.9093 51.3333 28.4641 51.3333 28C51.3333 27.5359 51.149 27.0908 50.8208 26.7626C50.4926 26.4344 50.0475 26.25 49.5833 26.25H46.0833C45.6192 26.25 45.1741 26.4344 44.8459 26.7626C44.5177 27.0908 44.3333 27.5359 44.3333 28C44.3333 28.4641 44.5177 28.9093 44.8459 29.2374C45.1741 29.5656 45.6192 29.75 46.0833 29.75H49.5833ZM28 44.3333C28.4641 44.3333 28.9092 44.5177 29.2374 44.8459C29.5656 45.1741 29.75 45.6192 29.75 46.0833V49.5833C29.75 50.0475 29.5656 50.4926 29.2374 50.8208C28.9092 51.149 28.4641 51.3333 28 51.3333C27.5359 51.3333 27.0907 51.149 26.7626 50.8208C26.4344 50.4926 26.25 50.0475 26.25 49.5833V46.0833C26.25 45.6192 26.4344 45.1741 26.7626 44.8459C27.0907 44.5177 27.5359 44.3333 28 44.3333ZM9.91666 29.75C10.3808 29.75 10.8259 29.5656 11.1541 29.2374C11.4823 28.9093 11.6667 28.4641 11.6667 28C11.6667 27.5359 11.4823 27.0908 11.1541 26.7626C10.8259 26.4344 10.3808 26.25 9.91666 26.25H6.41666C5.95253 26.25 5.50741 26.4344 5.17922 26.7626C4.85103 27.0908 4.66666 27.5359 4.66666 28C4.66666 28.4641 4.85103 28.9093 5.17922 29.2374C5.50741 29.5656 5.95253 29.75 6.41666 29.75H9.91666ZM9.84666 9.84667C10.1748 9.51895 10.6196 9.33487 11.0833 9.33487C11.5471 9.33487 11.9919 9.51895 12.32 9.84667L15.82 13.3467C16.1291 13.6784 16.2974 14.1172 16.2894 14.5706C16.2814 15.0239 16.0977 15.4565 15.7771 15.7771C15.4565 16.0978 15.0239 16.2814 14.5705 16.2894C14.1172 16.2974 13.6784 16.1291 13.3467 15.82L9.84666 12.32C9.51894 11.9919 9.33486 11.5471 9.33486 11.0833C9.33486 10.6196 9.51894 10.1748 9.84666 9.84667ZM12.32 46.1533C12.1598 46.3253 11.9666 46.4632 11.7519 46.5588C11.5372 46.6545 11.3055 46.7059 11.0705 46.71C10.8356 46.7142 10.6022 46.671 10.3843 46.583C10.1664 46.4949 9.96841 46.3639 9.80223 46.1978C9.63606 46.0316 9.50505 45.8336 9.41704 45.6157C9.32902 45.3978 9.2858 45.1644 9.28994 44.9295C9.29409 44.6945 9.34552 44.4627 9.44117 44.2481C9.53682 44.0334 9.67472 43.8402 9.84666 43.68L13.3467 40.18C13.5069 40.0081 13.7001 39.8702 13.9147 39.7745C14.1294 39.6789 14.3611 39.6274 14.5961 39.6233C14.8311 39.6191 15.0645 39.6624 15.2824 39.7504C15.5003 39.8384 15.6982 39.9694 15.8644 40.1356C16.0306 40.3018 16.1616 40.4997 16.2496 40.7176C16.3376 40.9355 16.3808 41.1689 16.3767 41.4039C16.3726 41.6389 16.3211 41.8706 16.2255 42.0853C16.1298 42.2999 15.9919 42.4931 15.82 42.6533L12.32 46.1533ZM46.1533 9.84667C45.8252 9.51895 45.3804 9.33487 44.9167 9.33487C44.4529 9.33487 44.0081 9.51895 43.68 9.84667L40.18 13.3467C39.8709 13.6784 39.7026 14.1172 39.7106 14.5706C39.7186 15.0239 39.9022 15.4565 40.2229 15.7771C40.5435 16.0978 40.9761 16.2814 41.4294 16.2894C41.8828 16.2974 42.3216 16.1291 42.6533 15.82L46.1533 12.32C46.481 11.9919 46.6651 11.5471 46.6651 11.0833C46.6651 10.6196 46.481 10.1748 46.1533 9.84667ZM43.68 46.1533C43.8402 46.3253 44.0334 46.4632 44.2481 46.5588C44.4627 46.6545 44.6945 46.7059 44.9294 46.71C45.1644 46.7142 45.3978 46.671 45.6157 46.583C45.8336 46.4949 46.0316 46.3639 46.1977 46.1978C46.3639 46.0316 46.4949 45.8336 46.5829 45.6157C46.671 45.3978 46.7142 45.1644 46.71 44.9295C46.7059 44.6945 46.6545 44.4627 46.5588 44.2481C46.4632 44.0334 46.3253 43.8402 46.1533 43.68L42.6533 40.18C42.4931 40.0081 42.2999 39.8702 42.0853 39.7745C41.8706 39.6789 41.6389 39.6274 41.4039 39.6233C41.1689 39.6191 40.9355 39.6624 40.7176 39.7504C40.4997 39.8384 40.3017 39.9694 40.1356 40.1356C39.9694 40.3018 39.8384 40.4997 39.7504 40.7176C39.6624 40.9355 39.6191 41.1689 39.6233 41.4039C39.6274 41.6389 39.6789 41.8706 39.7745 42.0853C39.8702 42.2999 40.0081 42.4931 40.18 42.6533L43.68 46.1533Z" fill="black"/>
</svg>
