<svg width="56" height="56" viewBox="0 0 56 56" fill="none" xmlns="http://www.w3.org/2000/svg">
<path d="M30.338 14.0233C37.7323 14.0233 41.9253 18.9163 42.5367 24.8267H42.7233C43.8533 24.8251 44.9725 25.0462 46.017 25.4773C47.0615 25.9083 48.0108 26.541 48.8108 27.339C49.6108 28.137 50.2457 29.0848 50.6794 30.1283C51.113 31.1717 51.3368 32.2904 51.338 33.4203C51.3365 34.5501 51.1124 35.6685 50.6787 36.7117C50.2449 37.7548 49.6099 38.7024 48.81 39.5001C48.0101 40.2979 47.0608 40.9303 46.0165 41.3612C44.9721 41.7922 43.8531 42.0132 42.7233 42.0116L41.2767 42.0093L37.66 48.132C37.4381 48.5157 37.0789 48.8009 36.6549 48.93C36.2309 49.0591 35.7737 49.0226 35.3756 48.8277C34.9775 48.6328 34.6682 48.2941 34.5101 47.88C34.3521 47.4659 34.357 47.0072 34.524 46.5966L34.629 46.382L37.2377 42.0093H32.2537L28.6347 48.132C28.4128 48.5157 28.0536 48.8009 27.6296 48.93C27.2055 49.0591 26.7483 49.0226 26.3502 48.8277C25.9522 48.6328 25.6429 48.2941 25.4848 47.88C25.3267 47.4659 25.3317 47.0072 25.4987 46.5966L25.6037 46.382L28.2123 42.0093H23.2283L19.6093 48.132C19.3875 48.5157 19.0282 48.8009 18.6042 48.93C18.1802 49.0591 17.723 49.0226 17.3249 48.8277C16.9268 48.6328 16.6175 48.2941 16.4595 47.88C16.3014 47.4659 16.3064 47.0072 16.4733 46.5966L16.5783 46.382L19.1847 42.0093L17.955 42.0116C16.8252 42.0132 15.7062 41.7922 14.6619 41.3612C13.6175 40.9303 12.6683 40.2979 11.8684 39.5001C11.0684 38.7024 10.4334 37.7548 9.99967 36.7117C9.56591 35.6685 9.34187 34.5501 9.34034 33.4203C9.34157 32.2904 9.56538 31.1717 9.999 30.1283C10.4326 29.0848 11.0676 28.137 11.8675 27.339C12.6675 26.541 13.6169 25.9083 14.6614 25.4773C15.7059 25.0462 16.8251 24.8251 17.955 24.8267H18.1417C18.7553 18.8767 22.946 14.0233 30.338 14.0233ZM30.338 17.5187C25.5057 17.5187 21.2917 21.329 21.2917 26.593C21.2917 27.426 20.5473 28.0816 19.6957 28.0816H18.0857C15.1433 28.0816 12.7563 30.4173 12.7563 33.299C12.7563 36.1806 15.1433 38.5186 18.0857 38.5186H42.5927C45.5327 38.5186 47.9197 36.1806 47.9197 33.299C47.9197 30.4173 45.535 28.0816 42.5927 28.0816H40.9803C40.1287 28.0816 39.3843 27.4283 39.3843 26.593C39.3843 21.2613 35.1703 17.5163 30.338 17.5163V17.5187ZM10.192 23.7207C10.3534 24.1114 10.3679 24.5474 10.2328 24.948C10.0977 25.3486 9.82211 25.6868 9.45701 25.9L9.24468 26.0073L7.08401 26.901C6.67448 27.0702 6.21603 27.0777 5.80116 26.9221C5.38629 26.7665 5.0459 26.4592 4.84869 26.0625C4.65148 25.6657 4.61213 25.2088 4.73858 24.7842C4.86503 24.3595 5.14787 23.9986 5.53001 23.7743L5.74468 23.667L7.90534 22.7733C8.11769 22.6854 8.34528 22.6401 8.57513 22.6401C8.80497 22.6401 9.03256 22.6854 9.2449 22.7733C9.45725 22.8613 9.65018 22.9902 9.81269 23.1528C9.97519 23.3153 10.1041 23.5083 10.192 23.7207ZM25.3283 12.4413L24.927 12.5767C23.7135 13.002 22.5665 13.5975 21.5203 14.3453C20.3969 13.9804 19.1878 13.9736 18.0604 14.326C16.9329 14.6783 15.9428 15.3724 15.2271 16.3121C14.5114 17.2518 14.1054 18.3907 14.0653 19.5712C14.0252 20.7517 14.353 21.9156 15.0033 22.9016C13.8661 23.2211 12.7893 23.7256 11.816 24.395C10.7466 22.5568 10.3471 20.4049 10.6856 18.3054C11.0241 16.2059 12.0796 14.2886 13.6725 12.8797C15.2654 11.4708 17.2974 10.6574 19.4225 10.5779C21.5476 10.4984 23.6346 11.1577 25.3283 12.4437V12.4413ZM6.86234 12.5137L7.10968 12.5953L9.27034 13.4913C9.67663 13.6616 10.0037 13.9789 10.1864 14.3798C10.369 14.7807 10.3937 15.2358 10.2555 15.6541C10.1173 16.0724 9.8265 16.4232 9.44102 16.6365C9.05555 16.8498 8.60381 16.9098 8.17601 16.8047L7.93334 16.7277L5.77268 15.8317C5.36746 15.6608 5.04141 15.3437 4.85939 14.9434C4.67738 14.5431 4.65274 14.0889 4.79039 13.6713C4.92804 13.2536 5.21788 12.9031 5.60224 12.6895C5.9866 12.4758 6.4373 12.4147 6.86468 12.5183L6.86234 12.5137ZM15.764 5.54632L15.8713 5.75865L16.765 7.92165C16.9318 8.33082 16.9376 8.78792 16.7813 9.2012C16.625 9.61448 16.3182 9.95334 15.9224 10.1498C15.5266 10.3462 15.0712 10.3856 14.6475 10.2601C14.2239 10.1347 13.8633 9.85359 13.6383 9.47332L13.531 9.26099L12.6373 7.09799C12.4706 6.68882 12.4647 6.23172 12.621 5.81844C12.7773 5.40516 13.0842 5.0663 13.48 4.86988C13.8757 4.67347 14.3312 4.63404 14.7548 4.7595C15.1785 4.88497 15.539 5.16605 15.764 5.54632ZM25.9233 4.80432C26.3103 4.96506 26.6267 5.25927 26.8151 5.6335C27.0035 6.00772 27.0513 6.43712 26.95 6.84365L26.8683 7.08865L25.9747 9.25165C25.8044 9.65794 25.4871 9.98505 25.0862 10.1677C24.6853 10.3503 24.2302 10.375 23.8119 10.2368C23.3936 10.0987 23.0428 9.80781 22.8295 9.42233C22.6162 9.03686 22.5562 8.58512 22.6613 8.15732L22.7407 7.91232L23.6367 5.74932C23.8147 5.32085 24.1556 4.98062 24.5844 4.80341C25.0132 4.6262 25.4948 4.62653 25.9233 4.80432Z" fill="black"/>
</svg>
