<svg width="56" height="56" viewBox="0 0 56 56" fill="none" xmlns="http://www.w3.org/2000/svg">
<path d="M25.0834 46.6667C25.5475 46.6667 25.9926 46.8511 26.3208 47.1792C26.649 47.5074 26.8334 47.9526 26.8334 48.4167C26.8334 48.8808 26.649 49.3259 26.3208 49.6541C25.9926 49.9823 25.5475 50.1667 25.0834 50.1667C24.6192 50.1667 24.1741 49.9823 23.8459 49.6541C23.5177 49.3259 23.3334 48.8808 23.3334 48.4167C23.3334 47.9526 23.5177 47.5074 23.8459 47.1792C24.1741 46.8511 24.6192 46.6667 25.0834 46.6667ZM35.5834 46.6667C36.0475 46.6667 36.4926 46.8511 36.8208 47.1792C37.149 47.5074 37.3334 47.9526 37.3334 48.4167C37.3334 48.8808 37.149 49.3259 36.8208 49.6541C36.4926 49.9823 36.0475 50.1667 35.5834 50.1667C35.1192 50.1667 34.6741 49.9823 34.3459 49.6541C34.0177 49.3259 33.8334 48.8808 33.8334 48.4167C33.8334 47.9526 34.0177 47.5074 34.3459 47.1792C34.6741 46.8511 35.1192 46.6667 35.5834 46.6667ZM19.8334 44.3333C20.2975 44.3333 20.7426 44.5177 21.0708 44.8459C21.399 45.1741 21.5834 45.6192 21.5834 46.0833C21.5834 46.5475 21.399 46.9926 21.0708 47.3208C20.7426 47.649 20.2975 47.8333 19.8334 47.8333C19.3692 47.8333 18.9241 47.649 18.5959 47.3208C18.2677 46.9926 18.0834 46.5475 18.0834 46.0833C18.0834 45.6192 18.2677 45.1741 18.5959 44.8459C18.9241 44.5177 19.3692 44.3333 19.8334 44.3333ZM30.3334 44.3333C30.7975 44.3333 31.2426 44.5177 31.5708 44.8459C31.899 45.1741 32.0834 45.6192 32.0834 46.0833C32.0834 46.5475 31.899 46.9926 31.5708 47.3208C31.2426 47.649 30.7975 47.8333 30.3334 47.8333C29.8692 47.8333 29.4241 47.649 29.0959 47.3208C28.7677 46.9926 28.5834 46.5475 28.5834 46.0833C28.5834 45.6192 28.7677 45.1741 29.0959 44.8459C29.4241 44.5177 29.8692 44.3333 30.3334 44.3333ZM40.8334 44.3333C41.2975 44.3333 41.7426 44.5177 42.0708 44.8459C42.399 45.1741 42.5834 45.6192 42.5834 46.0833C42.5834 46.5475 42.399 46.9926 42.0708 47.3208C41.7426 47.649 41.2975 47.8333 40.8334 47.8333C40.3692 47.8333 39.9241 47.649 39.5959 47.3208C39.2677 46.9926 39.0834 46.5475 39.0834 46.0833C39.0834 45.6192 39.2677 45.1741 39.5959 44.8459C39.9241 44.5177 40.3692 44.3333 40.8334 44.3333ZM30.3357 14.042C37.73 14.042 41.923 18.935 42.5344 24.8453H42.721C45.0023 24.8429 47.1911 25.7466 48.8062 27.3577C50.4212 28.9688 51.3303 31.1554 51.3334 33.4367C51.3321 34.5666 51.1083 35.6853 50.6747 36.7287C50.2411 37.7722 49.6061 38.72 48.8062 39.518C48.0062 40.316 47.0568 40.9487 46.0123 41.3797C44.9678 41.8108 43.8486 42.0319 42.7187 42.0303H17.9527C16.8227 42.0319 15.7035 41.8108 14.659 41.3797C13.6145 40.9487 12.6652 40.316 11.8652 39.518C11.0652 38.72 10.4303 37.7722 9.99668 36.7287C9.56306 35.6853 9.33925 34.5666 9.33802 33.4367C9.33955 32.3069 9.56359 31.1885 9.99735 30.1453C10.4311 29.1022 11.0661 28.1546 11.866 27.3569C12.666 26.5591 13.6152 25.9267 14.6596 25.4957C15.7039 25.0648 16.8229 24.8438 17.9527 24.8453H18.1394C18.753 18.8953 22.9437 14.042 30.3357 14.042ZM15.372 4.69001C17.2316 4.7903 19.041 5.32921 20.6524 6.26268C23.0194 7.62372 24.841 9.76369 25.8067 12.3177C21.175 13.6267 17.8617 16.9867 16.4874 21.525L16.324 22.099L16.191 22.6543L15.7104 22.743C13.0819 23.2998 10.7519 24.808 9.16769 26.978L8.80602 26.7797C7.28182 25.9021 5.97285 24.6951 4.97469 23.247C4.82242 23.0262 4.72296 22.7733 4.68396 22.508C4.64497 22.2426 4.6675 21.9718 4.74982 21.7165C4.83213 21.4613 4.97202 21.2283 5.15868 21.0357C5.34534 20.8431 5.57378 20.696 5.82635 20.6057C9.66002 19.2337 11.725 17.689 12.9057 15.435C14.196 12.9733 14.434 10.3623 13.5777 6.85535C13.5123 6.58966 13.5102 6.31235 13.5714 6.04567C13.6326 5.779 13.7555 5.53041 13.9303 5.31984C14.105 5.10928 14.3266 4.94261 14.5774 4.83323C14.8282 4.72385 15.1012 4.6748 15.3744 4.69001H15.372Z" fill="black"/>
</svg>
