<svg width="56" height="56" viewBox="0 0 56 56" fill="none" xmlns="http://www.w3.org/2000/svg">
<path d="M27.4167 4.66667C27.8399 4.66676 28.2488 4.82024 28.5675 5.09867C28.8863 5.3771 29.0933 5.76162 29.1503 6.181L29.1667 6.419L29.1643 14.224L34.2323 9.77433C34.405 9.62266 34.6058 9.50648 34.8234 9.43242C35.041 9.35837 35.271 9.32789 35.5003 9.34273C35.7297 9.35757 35.9539 9.41744 36.1601 9.51892C36.3663 9.6204 36.5505 9.7615 36.7022 9.93417C36.8538 10.1068 36.97 10.3077 37.0441 10.5253C37.1181 10.7428 37.1486 10.9728 37.1338 11.2022C37.1189 11.4315 37.059 11.6557 36.9576 11.8619C36.8561 12.0681 36.715 12.2523 36.5423 12.404L29.1667 18.8837L29.162 25.6667H35.9497L42.4363 18.2933C42.7132 17.9783 43.0941 17.7732 43.5095 17.7154C43.9249 17.6576 44.3473 17.7509 44.6997 17.9783L44.905 18.1347C45.22 18.4116 45.4251 18.7924 45.4829 19.2078C45.5407 19.6232 45.4474 20.0456 45.22 20.398L45.0637 20.6033L40.6117 25.6667H48.4167C48.8399 25.6668 49.2488 25.8202 49.5675 26.0987C49.8863 26.3771 50.0933 26.7616 50.1503 27.181L50.1667 27.4167C50.1666 27.8396 50.0135 28.2481 49.7355 28.5668C49.4576 28.8855 49.0736 29.0928 48.6547 29.1503L48.4167 29.1667H40.6047L45.059 34.237C45.3365 34.552 45.4915 34.9562 45.4958 35.376C45.5001 35.7958 45.3533 36.2031 45.0823 36.5237L44.9003 36.7057C44.5853 36.9832 44.1811 37.1382 43.7613 37.1425C43.3416 37.1468 42.9342 37 42.6137 36.729L42.4293 36.547L35.945 29.1667H29.1597L29.162 35.9497L36.5447 42.4363C36.8597 42.7132 37.0648 43.0941 37.1226 43.5095C37.1804 43.9249 37.0871 44.3473 36.8597 44.6997L36.7033 44.9073C36.4264 45.2224 36.0456 45.4274 35.6302 45.4853C35.2148 45.5431 34.7924 45.4498 34.44 45.2223L34.2347 45.066L29.162 40.6093L29.1597 48.4213C29.1596 48.8446 29.0061 49.2534 28.7277 49.5722C28.4492 49.891 28.0647 50.098 27.6453 50.155L27.4097 50.169C26.9868 50.169 26.5782 50.0158 26.2595 49.7379C25.9408 49.4599 25.7335 49.076 25.676 48.657L25.6597 48.419L25.6573 40.6187L20.601 45.066C20.2523 45.3723 19.7962 45.5276 19.333 45.4976C18.8698 45.4676 18.4375 45.2549 18.1312 44.9062C17.8248 44.5575 17.6696 44.1013 17.6996 43.6381C17.7295 43.175 17.9423 42.7427 18.291 42.4363L25.6597 35.9567V29.1667H19.3947L12.4017 37.1303C12.0953 37.479 11.663 37.6918 11.1998 37.7218C10.7367 37.7517 10.2805 37.5965 9.93183 37.2902C9.58311 36.9838 9.37036 36.5515 9.34039 36.0884C9.31041 35.6252 9.46567 35.1691 9.77199 34.8203L14.7373 29.1667L6.41666 29.1713C5.99342 29.1712 5.58456 29.0178 5.2658 28.7393C4.94704 28.4609 4.73999 28.0764 4.68299 27.657L4.66666 27.419C4.66611 26.9957 4.81901 26.5866 5.09701 26.2674C5.37502 25.9482 5.7593 25.7406 6.17866 25.683L6.41666 25.669H13.706L9.77199 21.182C9.46567 20.8333 9.31041 20.3772 9.34039 19.914C9.37036 19.4508 9.58311 19.0185 9.93182 18.7122C10.2805 18.4058 10.7367 18.2506 11.1998 18.2806C11.663 18.3105 12.0953 18.5233 12.4017 18.872L18.3633 25.6667H25.662V18.8767L18.2887 12.3947C17.9736 12.1178 17.7686 11.7369 17.7107 11.3215C17.6529 10.9061 17.7462 10.4837 17.9737 10.1313L18.13 9.926C18.4069 9.61099 18.7877 9.4059 19.2031 9.34808C19.6186 9.29027 20.0409 9.38357 20.3933 9.611L20.601 9.76733L25.6643 14.217L25.6667 6.41667C25.6666 6.03381 25.7921 5.66148 26.0239 5.35677C26.2557 5.05205 26.581 4.83176 26.95 4.72967L27.1787 4.683L27.4167 4.66667Z" fill="black"/>
</svg>
