<svg width="56" height="56" viewBox="0 0 56 56" fill="none" xmlns="http://www.w3.org/2000/svg">
<path d="M46.7273 39.669C40.2827 50.8317 26.0097 54.656 14.847 48.2113C11.8445 46.4825 9.26629 44.1044 7.30101 41.251C7.1492 41.0303 7.05011 40.7776 7.01137 40.5125C6.97263 40.2474 6.99528 39.9769 7.07756 39.722C7.15984 39.467 7.29957 39.2343 7.48597 39.0419C7.67237 38.8495 7.90046 38.7024 8.15267 38.612C16.9423 35.4667 21.651 31.8197 24.3833 26.6047C27.258 21.1143 28.0023 15.1013 25.991 6.85534C25.9266 6.59016 25.9251 6.31359 25.9866 6.04773C26.0481 5.78186 26.1709 5.53406 26.3452 5.32412C26.5196 5.11418 26.7406 4.94793 26.9907 4.83864C27.2407 4.72934 27.5128 4.68004 27.7853 4.69467C31.4476 4.8918 35.0113 5.95282 38.185 7.791C49.3477 14.2333 53.172 28.5063 46.725 39.6667L46.7273 39.669ZM27.482 28.2287C24.5653 33.8007 19.7587 37.793 11.5757 41.0597C13.0114 42.7001 14.7079 44.0924 16.597 45.1803C18.853 46.4829 21.3435 47.3284 23.9262 47.6685C26.509 48.0086 29.1334 47.8366 31.6497 47.1625C34.166 46.4883 36.5249 45.3251 38.5917 43.7393C40.6584 42.1535 42.3926 40.1762 43.6952 37.9202C44.9978 35.6642 45.8432 33.1737 46.1833 30.591C46.5234 28.0082 46.3515 25.3838 45.6773 22.8675C45.0031 20.3512 43.8399 17.9923 42.2542 15.9255C40.6684 13.8588 38.691 12.1246 36.435 10.822C34.4198 9.65478 32.2144 8.85225 29.9203 8.45134C31.43 16.3473 30.457 22.554 27.482 28.2287Z" fill="black"/>
</svg>
