<svg width="56" height="56" viewBox="0 0 56 56" fill="none" xmlns="http://www.w3.org/2000/svg">
<path d="M30.3357 14.0233C37.73 14.0233 41.923 18.9164 42.5344 24.8267H42.721C45.0023 24.8242 47.1911 25.7279 48.8062 27.339C50.4212 28.9501 51.3303 31.1368 51.3334 33.418C51.3321 34.548 51.1083 35.6666 50.6747 36.7101C50.2411 37.7535 49.6061 38.7013 48.8062 39.4994C48.0062 40.2974 47.0568 40.93 46.0123 41.3611C44.9678 41.7921 43.8486 42.0132 42.7187 42.0117L41.244 42L37.646 48.1367C37.4264 48.5249 37.0669 48.8147 36.6408 48.9468C36.2148 49.0788 35.7544 49.0432 35.3537 48.8472C34.953 48.6512 34.6423 48.3095 34.4851 47.8921C34.3278 47.4747 34.3359 47.013 34.5077 46.6013L34.6127 46.389L37.2027 42H32.2187L28.6184 48.1367C28.3965 48.5204 28.0372 48.8056 27.6132 48.9347C27.1892 49.0638 26.732 49.0273 26.3339 48.8324C25.9358 48.6375 25.6265 48.2988 25.4685 47.8847C25.3104 47.4706 25.3154 47.0119 25.4824 46.6013L25.5874 46.389L28.1774 42H23.191L19.593 48.1367C19.3711 48.5204 19.0119 48.8056 18.5879 48.9347C18.1639 49.0638 17.7067 49.0273 17.3086 48.8324C16.9105 48.6375 16.6012 48.2988 16.4431 47.8847C16.2851 47.4706 16.29 47.0119 16.457 46.6013L16.562 46.389L19.1497 42H17.7334C12.9757 42 9.33802 38.164 9.33802 33.418C9.33955 32.2883 9.56359 31.1699 9.99735 30.1267C10.4311 29.0835 11.0661 28.136 11.866 27.3382C12.666 26.5404 13.6152 25.908 14.6596 25.4771C15.7039 25.0462 16.8229 24.8252 17.9527 24.8267H18.1394C18.753 18.8767 22.9437 14.0233 30.3334 14.0233H30.3357ZM15.372 4.67135C17.2315 4.77172 19.0409 5.31062 20.6524 6.24402C23.019 7.60447 24.8406 9.74356 25.8067 12.2967C21.175 13.6103 17.8617 16.968 16.4874 21.504L16.324 22.078L16.191 22.6333L15.7104 22.722C13.0819 23.2788 10.7519 24.787 9.16769 26.957L8.80602 26.761C7.28157 25.8827 5.97258 24.675 4.97469 23.226C4.82242 23.0052 4.72296 22.7523 4.68396 22.487C4.64497 22.2216 4.6675 21.9508 4.74982 21.6955C4.83213 21.4403 4.97202 21.2073 5.15868 21.0147C5.34534 20.8221 5.57378 20.675 5.82635 20.5847C9.66002 19.2127 11.725 17.668 12.9057 15.414C14.196 12.9523 14.434 10.3413 13.5777 6.83435C13.5123 6.56866 13.5102 6.29135 13.5714 6.02467C13.6326 5.758 13.7555 5.50941 13.9303 5.29884C14.105 5.08828 14.3266 4.92161 14.5774 4.81223C14.8282 4.70285 15.1012 4.6538 15.3744 4.66901L15.372 4.67135Z" fill="black"/>
</svg>
