<svg width="56" height="56" viewBox="0 0 56 56" fill="none" xmlns="http://www.w3.org/2000/svg">
<path d="M28 9.33334C35.3943 9.33334 39.5873 14.2287 40.1963 20.1367H40.383C41.5133 20.1348 42.633 20.3558 43.6779 20.7868C44.7228 21.2179 45.6726 21.8507 46.4728 22.649C47.2731 23.4473 47.9082 24.3955 48.3418 25.4394C48.7754 26.4832 48.9991 27.6023 49 28.7327C48.9988 29.8628 48.7749 30.9817 48.3411 32.0253C47.9074 33.0689 47.2722 34.0168 46.472 34.8148C45.6718 35.6129 44.7221 36.2454 43.6774 36.6764C42.6326 37.1073 41.5132 37.3282 40.383 37.3263H39.025L35.3313 43.477C35.1094 43.8607 34.7502 44.1459 34.3262 44.275C33.9022 44.4042 33.445 44.3676 33.0469 44.1727C32.6488 43.9778 32.3395 43.6391 32.1814 43.225C32.0234 42.8109 32.0284 42.3522 32.1953 41.9417L32.3003 41.727L34.9837 37.324H29.9997L26.306 43.477C26.0841 43.8607 25.7249 44.1459 25.3009 44.275C24.8769 44.4042 24.4197 44.3676 24.0216 44.1727C23.6235 43.9778 23.3142 43.6391 23.1561 43.225C22.9981 42.8109 23.003 42.3522 23.17 41.9417L23.275 41.727L25.9583 37.324H20.972L17.2807 43.477C17.0588 43.8607 16.6996 44.1459 16.2755 44.275C15.8515 44.4042 15.3943 44.3676 14.9962 44.1727C14.5981 43.9778 14.2888 43.6391 14.1308 43.225C13.9727 42.8109 13.9777 42.3522 14.1447 41.9417L14.2497 41.727L16.9307 37.324H15.617C14.487 37.3258 13.3678 37.1051 12.3232 36.6743C11.2785 36.2435 10.329 35.6111 9.52883 34.8133C8.72864 34.0155 8.09345 33.0679 7.65955 32.0245C7.22565 30.9812 7.00153 29.8626 7 28.7327C7.00153 27.6029 7.22557 26.4845 7.65933 25.4413C8.09308 24.3982 8.72806 23.4506 9.52801 22.6528C10.328 21.8551 11.2772 21.2227 12.3216 20.7917C13.3659 20.3608 14.4849 20.1398 15.6147 20.1413H15.8013C16.4173 14.1867 20.608 9.33334 28 9.33334Z" fill="black"/>
</svg>
