<svg width="56" height="56" viewBox="0 0 56 56" fill="none" xmlns="http://www.w3.org/2000/svg">
<path d="M22.75 42.3523C23.2141 42.3523 23.6592 42.5367 23.9874 42.8649C24.3156 43.1931 24.5 43.6382 24.5 44.1023C24.5 44.5665 24.3156 45.0116 23.9874 45.3398C23.6592 45.668 23.2141 45.8523 22.75 45.8523C22.2859 45.8523 21.8408 45.668 21.5126 45.3398C21.1844 45.0116 21 44.5665 21 44.1023C21 43.6382 21.1844 43.1931 21.5126 42.8649C21.8408 42.5367 22.2859 42.3523 22.75 42.3523ZM33.25 42.3523C33.7141 42.3523 34.1592 42.5367 34.4874 42.8649C34.8156 43.1931 35 43.6382 35 44.1023C35 44.5665 34.8156 45.0116 34.4874 45.3398C34.1592 45.668 33.7141 45.8523 33.25 45.8523C32.7859 45.8523 32.3408 45.668 32.0126 45.3398C31.6844 45.0116 31.5 44.5665 31.5 44.1023C31.5 43.6382 31.6844 43.1931 32.0126 42.8649C32.3408 42.5367 32.7859 42.3523 33.25 42.3523ZM17.5 40.019C17.9641 40.019 18.4092 40.2034 18.7374 40.5316C19.0656 40.8598 19.25 41.3049 19.25 41.769C19.25 42.2331 19.0656 42.6782 18.7374 43.0064C18.4092 43.3346 17.9641 43.519 17.5 43.519C17.0359 43.519 16.5908 43.3346 16.2626 43.0064C15.9344 42.6782 15.75 42.2331 15.75 41.769C15.75 41.3049 15.9344 40.8598 16.2626 40.5316C16.5908 40.2034 17.0359 40.019 17.5 40.019ZM28 40.019C28.4641 40.019 28.9092 40.2034 29.2374 40.5316C29.5656 40.8598 29.75 41.3049 29.75 41.769C29.75 42.2331 29.5656 42.6782 29.2374 43.0064C28.9092 43.3346 28.4641 43.519 28 43.519C27.5359 43.519 27.0908 43.3346 26.7626 43.0064C26.4344 42.6782 26.25 42.2331 26.25 41.769C26.25 41.3049 26.4344 40.8598 26.7626 40.5316C27.0908 40.2034 27.5359 40.019 28 40.019ZM38.5 40.019C38.9641 40.019 39.4092 40.2034 39.7374 40.5316C40.0656 40.8598 40.25 41.3049 40.25 41.769C40.25 42.2331 40.0656 42.6782 39.7374 43.0064C39.4092 43.3346 38.9641 43.519 38.5 43.519C38.0359 43.519 37.5908 43.3346 37.2626 43.0064C36.9344 42.6782 36.75 42.2331 36.75 41.769C36.75 41.3049 36.9344 40.8598 37.2626 40.5316C37.5908 40.2034 38.0359 40.019 38.5 40.019ZM28 9.33567C35.3943 9.33567 39.5873 14.2287 40.1963 20.139H40.383C41.513 20.1372 42.6322 20.3579 43.6768 20.7887C44.7214 21.2195 45.671 21.8519 46.4712 22.6497C47.2714 23.4475 47.9065 24.3951 48.3405 25.4385C48.7744 26.4818 48.9985 27.6004 49 28.7303C48.9988 29.8605 48.7749 30.9793 48.3411 32.0229C47.9074 33.0665 47.2722 34.0144 46.472 34.8125C45.6718 35.6105 44.7221 36.2431 43.6774 36.674C42.6326 37.105 41.5132 37.3258 40.383 37.324H15.617C14.4868 37.3258 13.3674 37.105 12.3226 36.674C11.2779 36.2431 10.3282 35.6105 9.52801 34.8125C8.72778 34.0144 8.09265 33.0665 7.65888 32.0229C7.22512 30.9793 7.00122 29.8605 7 28.7303C7.00153 27.6006 7.22557 26.4822 7.65933 25.439C8.09308 24.3958 8.72806 23.4483 9.52801 22.6505C10.328 21.8527 11.2772 21.2203 12.3216 20.7894C13.3659 20.3585 14.4849 20.1375 15.6147 20.139H15.8013C16.4173 14.1867 20.608 9.33333 28 9.33333V9.33567Z" fill="black"/>
</svg>
