<svg width="56" height="56" viewBox="0 0 56 56" fill="none" xmlns="http://www.w3.org/2000/svg">
<path d="M28 4C28.3978 4 28.7794 4.15804 29.0607 4.43934C29.342 4.72064 29.5 5.10218 29.5 5.5V8.492C29.5 8.88982 29.342 9.27136 29.0607 9.55266C28.7794 9.83396 28.3978 9.992 28 9.992C27.6022 9.992 27.2206 9.83396 26.9393 9.55266C26.658 9.27136 26.5 8.88982 26.5 8.492V5.5C26.5 5.10218 26.658 4.72064 26.9393 4.43934C27.2206 4.15804 27.6022 4 28 4ZM40 28C40 29.5759 39.6896 31.1363 39.0866 32.5922C38.4835 34.0481 37.5996 35.371 36.4853 36.4853C35.371 37.5996 34.0481 38.4835 32.5922 39.0866C31.1363 39.6896 29.5759 40 28 40C26.4241 40 24.8637 39.6896 23.4078 39.0866C21.9519 38.4835 20.629 37.5996 19.5147 36.4853C18.4004 35.371 17.5165 34.0481 16.9134 32.5922C16.3104 31.1363 16 29.5759 16 28C16 24.8174 17.2643 21.7652 19.5147 19.5147C21.7652 17.2643 24.8174 16 28 16C31.1826 16 34.2348 17.2643 36.4853 19.5147C38.7357 21.7652 40 24.8174 40 28ZM50.5 29.5C50.8978 29.5 51.2794 29.342 51.5607 29.0607C51.842 28.7794 52 28.3978 52 28C52 27.6022 51.842 27.2206 51.5607 26.9393C51.2794 26.658 50.8978 26.5 50.5 26.5H47.506C47.1082 26.5 46.7266 26.658 46.4453 26.9393C46.164 27.2206 46.006 27.6022 46.006 28C46.006 28.3978 46.164 28.7794 46.4453 29.0607C46.7266 29.342 47.1082 29.5 47.506 29.5H50.498H50.5ZM28 46.008C28.3978 46.008 28.7794 46.166 29.0607 46.4473C29.342 46.7286 29.5 47.1102 29.5 47.508V50.5C29.5 50.8978 29.342 51.2794 29.0607 51.5607C28.7794 51.842 28.3978 52 28 52C27.6022 52 27.2206 51.842 26.9393 51.5607C26.658 51.2794 26.5 50.8978 26.5 50.5V47.508C26.5 47.1102 26.658 46.7286 26.9393 46.4473C27.2206 46.166 27.6022 46.008 28 46.008ZM8.5 29.5C8.89782 29.5 9.27936 29.342 9.56066 29.0607C9.84196 28.7794 10 28.3978 10 28C10 27.6022 9.84196 27.2206 9.56066 26.9393C9.27936 26.658 8.89782 26.5 8.5 26.5H5.5C5.10218 26.5 4.72064 26.658 4.43934 26.9393C4.15804 27.2206 4 27.6022 4 28C4 28.3978 4.15804 28.7794 4.43934 29.0607C4.72064 29.342 5.10218 29.5 5.5 29.5H8.5ZM10.438 10.438C10.7193 10.1571 11.1005 9.99932 11.498 9.99932C11.8955 9.99932 12.2767 10.1571 12.558 10.438L15.558 13.438C15.823 13.7223 15.9672 14.0984 15.9604 14.487C15.9535 14.8756 15.7961 15.2464 15.5212 15.5212C15.2464 15.7961 14.8756 15.9535 14.487 15.9604C14.0984 15.9672 13.7223 15.823 13.438 15.558L10.438 12.558C10.1571 12.2767 9.99932 11.8955 9.99932 11.498C9.99932 11.1005 10.1571 10.7193 10.438 10.438ZM12.558 45.558C12.2736 45.823 11.8976 45.9672 11.509 45.9604C11.1204 45.9535 10.7496 45.7961 10.4748 45.5212C10.1999 45.2464 10.0425 44.8756 10.0357 44.487C10.0288 44.0984 10.173 43.7224 10.438 43.438L13.438 40.438C13.7223 40.173 14.0984 40.0288 14.487 40.0356C14.8756 40.0425 15.2464 40.1999 15.5212 40.4748C15.7961 40.7496 15.9535 41.1203 15.9604 41.509C15.9672 41.8976 15.823 42.2736 15.558 42.558L12.558 45.558ZM45.558 10.438C45.2767 10.1571 44.8955 9.99932 44.498 9.99932C44.1005 9.99932 43.7192 10.1571 43.438 10.438L40.438 13.438C40.173 13.7223 40.0288 14.0984 40.0356 14.487C40.0425 14.8756 40.1999 15.2464 40.4748 15.5212C40.7496 15.7961 41.1203 15.9535 41.509 15.9604C41.8976 15.9672 42.2736 15.823 42.558 15.558L45.558 12.558C45.8389 12.2767 45.9967 11.8955 45.9967 11.498C45.9967 11.1005 45.8389 10.7193 45.558 10.438ZM43.44 45.56C43.5773 45.7074 43.7429 45.8256 43.9269 45.9076C44.1109 45.9895 44.3096 46.0336 44.511 46.0372C44.7124 46.0407 44.9124 46.0037 45.0992 45.9282C45.286 45.8528 45.4556 45.7405 45.5981 45.5981C45.7405 45.4556 45.8528 45.286 45.9282 45.0992C46.0037 44.9124 46.0407 44.7124 46.0372 44.511C46.0336 44.3096 45.9895 44.1109 45.9076 43.9269C45.8256 43.7429 45.7074 43.5773 45.56 43.44L42.56 40.44C42.4227 40.2926 42.2571 40.1744 42.0731 40.0924C41.8891 40.0105 41.6904 39.9664 41.489 39.9628C41.2876 39.9593 41.0876 39.9963 40.9008 40.0718C40.714 40.1472 40.5444 40.2595 40.4019 40.4019C40.2595 40.5444 40.1472 40.714 40.0718 40.9008C39.9963 41.0876 39.9593 41.2876 39.9628 41.489C39.9664 41.6904 40.0105 41.8891 40.0924 42.0731C40.1744 42.2571 40.2926 42.4227 40.44 42.56L43.44 45.56Z" fill="black"/>
</svg>
