<svg width="56" height="56" viewBox="0 0 56 56" fill="none" xmlns="http://www.w3.org/2000/svg">
<path d="M30.338 18.683C37.7323 18.683 41.9253 23.576 42.5367 29.4863H42.7233C43.8533 29.4848 44.9725 29.7059 46.017 30.1369C47.0615 30.568 48.0108 31.2006 48.8108 31.9987C49.6108 32.7967 50.2457 33.7445 50.6794 34.7879C51.113 35.8314 51.3368 36.95 51.338 38.08C51.3365 39.2098 51.1124 40.3282 50.6787 41.3713C50.2449 42.4145 49.6099 43.362 48.81 44.1598C48.0101 44.9576 47.0608 45.59 46.0165 46.0209C44.9721 46.4519 43.8531 46.6729 42.7233 46.6713H17.9527C16.8229 46.6729 15.7039 46.4519 14.6596 46.0209C13.6152 45.59 12.666 44.9576 11.866 44.1598C11.0661 43.362 10.4311 42.4145 9.99734 41.3713C9.56358 40.3282 9.33954 39.2098 9.33801 38.08C9.33923 36.95 9.56305 35.8314 9.99667 34.7879C10.4303 33.7445 11.0652 32.7967 11.8652 31.9987C12.6652 31.2006 13.6145 30.568 14.659 30.1369C15.7035 29.7059 16.8227 29.4848 17.9527 29.4863H18.1393C18.753 23.5363 22.9437 18.683 30.3357 18.683H30.338ZM10.192 28.378C10.3541 28.769 10.3689 29.2056 10.2338 29.6067C10.0986 30.0078 9.82266 30.3464 9.45701 30.5597L9.24468 30.6647L7.08401 31.5607C6.67448 31.7299 6.21603 31.7374 5.80116 31.5818C5.38629 31.4261 5.0459 31.1189 4.84869 30.7221C4.65148 30.3253 4.61213 29.8685 4.73858 29.4438C4.86503 29.0192 5.14787 28.6583 5.53001 28.434L5.74468 28.3267L7.90534 27.433C8.3339 27.2552 8.81552 27.2549 9.24432 27.4321C9.67312 27.6093 10.014 27.9495 10.192 28.378ZM25.3283 17.101L24.927 17.2363C20.7643 18.7063 17.7823 21.9147 16.492 26.1567L16.3287 26.74L16.1933 27.2953L15.7127 27.3863C14.3167 27.6795 12.9925 28.2457 11.816 29.0523C10.7466 27.2142 10.3471 25.0623 10.6856 22.9628C11.0241 20.8633 12.0796 18.9459 13.6725 17.537C15.2654 16.1281 17.2974 15.3147 19.4225 15.2352C21.5476 15.1557 23.6346 15.815 25.3283 17.101ZM6.86001 17.1733L7.10734 17.255L9.26801 18.151C9.6743 18.3213 10.0014 18.6386 10.184 19.0395C10.3666 19.4404 10.3913 19.8954 10.2532 20.3138C10.115 20.7321 9.82416 21.0829 9.43869 21.2962C9.05321 21.5095 8.60148 21.5695 8.17368 21.4643L7.93334 21.3873L5.77268 20.4913C5.36746 20.3205 5.04141 20.0034 4.85939 19.6031C4.67738 19.2028 4.65274 18.7486 4.79039 18.331C4.92804 17.9133 5.21788 17.5628 5.60224 17.3492C5.9866 17.1355 6.4373 17.0744 6.86468 17.178L6.86001 17.1733ZM15.7617 10.206L15.869 10.4183L16.7627 12.5813C16.9294 12.9905 16.9353 13.4476 16.779 13.8609C16.6227 14.2742 16.3158 14.613 15.9201 14.8094C15.5243 15.0058 15.0688 15.0453 14.6452 14.9198C14.2215 14.7943 13.861 14.5133 13.636 14.133L13.5287 13.9207L12.635 11.7577C12.4682 11.3485 12.4624 10.8914 12.6187 10.4781C12.775 10.0648 13.0818 9.72598 13.4776 9.52956C13.8734 9.33314 14.3289 9.29371 14.7525 9.41918C15.1762 9.54465 15.5367 9.82573 15.7617 10.206ZM25.921 9.46166C26.3084 9.62245 26.6252 9.91704 26.8136 10.2918C27.0021 10.6665 27.0496 11.0965 26.9477 11.5033L26.866 11.7483L25.9723 13.9113C25.802 14.3176 25.4847 14.6447 25.0838 14.8273C24.6829 15.01 24.2279 15.0347 23.8096 14.8965C23.3913 14.7583 23.0404 14.4675 22.8272 14.082C22.6139 13.6965 22.5538 13.2448 22.659 12.817L22.7383 12.5697L23.6343 10.409C23.7223 10.1966 23.8512 10.0037 24.0137 9.84113C24.1762 9.67858 24.3691 9.54964 24.5814 9.46167C24.7938 9.3737 25.0214 9.32842 25.2512 9.32842C25.4811 9.32842 25.7087 9.3737 25.921 9.46166Z" fill="black"/>
</svg>
