<svg width="56" height="56" viewBox="0 0 56 56" fill="none" xmlns="http://www.w3.org/2000/svg">
<path d="M30.3356 14.0397C37.73 14.0397 41.923 18.935 42.5343 24.843H42.721C43.8507 24.8418 44.9697 25.0631 46.0139 25.4943C47.0581 25.9255 48.0072 26.5582 48.8069 27.3561C49.6067 28.1541 50.2414 29.1018 50.6749 30.1451C51.1083 31.1884 51.3321 32.3069 51.3333 33.4367C51.3321 34.5666 51.1083 35.6853 50.6746 36.7287C50.241 37.7722 49.6061 38.72 48.8061 39.518C48.0061 40.316 47.0568 40.9486 46.0123 41.3797C44.9678 41.8108 43.8486 42.0319 42.7186 42.0303H41.2346L37.6506 48.125C37.4287 48.5087 37.0695 48.7939 36.6455 48.923C36.2215 49.0522 35.7643 49.0156 35.3662 48.8207C34.9681 48.6258 34.6588 48.2871 34.5008 47.873C34.3427 47.4589 34.3477 47.0002 34.5146 46.5897L34.6196 46.375L37.1933 42.028H32.2093L28.6253 48.125C28.4034 48.5087 28.0442 48.7939 27.6202 48.923C27.1962 49.0522 26.739 49.0156 26.3409 48.8207C25.9428 48.6258 25.6335 48.2871 25.4754 47.873C25.3174 47.4589 25.3223 47.0002 25.4893 46.5897L25.5943 46.375L28.168 42.028H23.1816L19.6 48.125C19.3781 48.5087 19.0189 48.7939 18.5949 48.923C18.1708 49.0522 17.7136 49.0156 17.3155 48.8207C16.9174 48.6258 16.6081 48.2871 16.4501 47.873C16.292 47.4589 16.297 47.0002 16.464 46.5897L16.569 46.375L19.1403 42.028H17.9503C15.669 42.0305 13.4802 41.1268 11.8652 39.5157C10.2501 37.9045 9.34106 35.7179 9.33797 33.4367C9.3395 32.3069 9.56354 31.1885 9.9973 30.1453C10.4311 29.1021 11.066 28.1546 11.866 27.3568C12.6659 26.559 13.6152 25.9266 14.6595 25.4957C15.7039 25.0648 16.8229 24.8438 17.9526 24.8453H18.1393C18.753 18.8953 22.9436 14.042 30.3356 14.042V14.0397ZM30.3356 17.535C25.5033 17.535 21.2893 21.3453 21.2893 26.6117C21.2893 27.4447 20.545 28.098 19.6933 28.098H18.0833C15.141 28.098 12.754 30.436 12.754 33.3177C12.754 36.1993 15.141 38.535 18.0833 38.535H42.5903C45.5303 38.535 47.9173 36.1993 47.9173 33.3177C47.9173 30.4337 45.5303 28.098 42.588 28.098H40.978C40.1263 28.098 39.382 27.4447 39.382 26.6093C39.382 21.2777 35.168 17.535 30.3356 17.535ZM15.372 4.68998C17.2313 4.78956 19.0407 5.32766 20.6523 6.26032C23.0202 7.62253 24.8419 9.76426 25.8066 12.32C24.64 12.6467 23.5596 13.1063 22.5726 13.6827C22.1538 12.5118 21.4771 11.4501 20.5926 10.5761C19.7081 9.70209 18.6384 9.03812 17.4626 8.63332C17.836 11.7857 17.3506 14.497 16.009 17.0567L15.7336 17.556C14.4036 19.8333 12.3923 21.539 9.39164 22.932C10.1347 23.5492 10.9784 24.0339 11.886 24.3647C10.8348 25.0701 9.91484 25.9537 9.16764 26.9757L8.80597 26.7773C7.28167 25.8998 5.97268 24.6929 4.97464 23.2447C4.82191 23.0238 4.72206 22.7707 4.68282 22.5051C4.64358 22.2394 4.66599 21.9683 4.74833 21.7127C4.83067 21.4571 4.97073 21.2239 5.15766 21.0311C5.34459 20.8384 5.57337 20.6912 5.8263 20.601C9.65997 19.229 11.725 17.6843 12.9056 15.4327C14.196 12.971 14.434 10.36 13.5776 6.85065C13.5127 6.58512 13.5109 6.30807 13.5723 6.04171C13.6337 5.77534 13.7567 5.52707 13.9314 5.3168C14.106 5.10652 14.3275 4.94008 14.5781 4.83083C14.8287 4.72157 15.1014 4.67254 15.3743 4.68765L15.372 4.68998Z" fill="black"/>
</svg>
