<svg width="56" height="56" viewBox="0 0 56 56" fill="none" xmlns="http://www.w3.org/2000/svg">
<path d="M30.338 18.6877C37.73 18.6877 41.9253 23.5807 42.5343 29.491H42.721C43.851 29.4895 44.9702 29.7106 46.0147 30.1416C47.0592 30.5727 48.0085 31.2053 48.8085 32.0033C49.6085 32.8014 50.2434 33.7492 50.677 34.7926C51.1106 35.8361 51.3344 36.9547 51.3357 38.0847C51.3341 39.2144 51.1101 40.3328 50.6763 41.376C50.2426 42.4192 49.6076 43.3667 48.8077 44.1645C48.0077 44.9623 47.0585 45.5947 46.0141 46.0256C44.9698 46.4565 43.8508 46.6775 42.721 46.676H17.9527C16.8229 46.6775 15.7039 46.4565 14.6596 46.0256C13.6152 45.5947 12.666 44.9623 11.866 44.1645C11.0661 43.3667 10.4311 42.4192 9.99733 41.376C9.56357 40.3328 9.33953 39.2144 9.338 38.0847C9.33923 36.9547 9.56304 35.8361 9.99666 34.7926C10.4303 33.7492 11.0652 32.8014 11.8652 32.0033C12.6652 31.2053 13.6145 30.5727 14.659 30.1416C15.7035 29.7106 16.8227 29.4895 17.9527 29.491H18.1393C18.753 23.541 22.946 18.6877 30.338 18.6877ZM30.338 22.1807C25.5033 22.1807 21.2917 25.9933 21.2917 31.2573C21.2917 32.0903 20.5473 32.746 19.6957 32.746H18.0857C15.141 32.746 12.7563 35.0793 12.7563 37.9634C12.7563 40.845 15.141 43.1807 18.0833 43.1807H42.5903C45.5327 43.1807 47.9173 40.8473 47.9173 37.9634C47.9173 35.0817 45.5327 32.746 42.5903 32.746H40.9803C40.1263 32.746 39.382 32.0927 39.382 31.2573C39.382 25.9257 35.1703 22.1807 30.338 22.1807ZM15.3743 9.33568C17.2339 9.43597 19.0433 9.97488 20.6547 10.9084C23.0207 12.27 24.8415 14.4098 25.8067 16.9634C24.64 17.29 23.5597 17.752 22.5727 18.326C22.1533 17.156 21.4763 16.0953 20.5918 15.2221C19.7073 14.3489 18.6379 13.6857 17.4627 13.2814C17.836 16.436 17.353 19.145 16.0113 21.707L15.736 22.204C14.4037 24.4813 12.3947 26.1894 9.39167 27.58C10.1353 28.1976 10.9799 28.6822 11.8883 29.0127C10.8383 29.7174 9.91667 30.6017 9.16767 31.6237C7.49042 30.7351 6.05211 29.4553 4.97467 27.8927C4.82245 27.6717 4.72308 27.4187 4.68425 27.1532C4.64541 26.8877 4.66814 26.6168 4.75069 26.3615C4.83324 26.1062 4.97338 25.8733 5.1603 25.6808C5.34722 25.4883 5.5759 25.3414 5.82867 25.2513C9.66234 23.8793 11.725 22.3347 12.908 20.0807C14.196 17.619 14.434 15.008 13.5777 11.501C13.5118 11.235 13.5094 10.9572 13.5705 10.69C13.6317 10.4228 13.7547 10.1738 13.9297 9.96286C14.1048 9.75196 14.3269 9.58511 14.5782 9.47577C14.8296 9.36643 15.103 9.31765 15.3767 9.33335L15.3743 9.33568Z" fill="black"/>
</svg>
