<svg width="56" height="56" viewBox="0 0 56 56" fill="none" xmlns="http://www.w3.org/2000/svg">
<path d="M28.9975 6.57564C28.8743 6.43174 28.7214 6.31622 28.5493 6.23702C28.3772 6.15781 28.19 6.1168 28.0005 6.1168C27.8111 6.1168 27.6239 6.15781 27.4518 6.23702C27.2797 6.31622 27.1268 6.43174 27.0036 6.57564C23.5408 10.6258 12.25 24.628 12.25 35C12.25 44.6655 18.3356 50.75 28 50.75C37.6644 50.75 43.75 44.6655 43.75 35C43.75 24.628 32.4592 10.6258 28.9975 6.57564ZM29.75 45.0625C29.5398 45.063 29.3325 45.0129 29.1457 44.9166C28.9588 44.8203 28.7979 44.6805 28.6763 44.509C28.5547 44.3375 28.4762 44.1393 28.4472 43.931C28.4182 43.7228 28.4396 43.5107 28.5097 43.3125C28.5992 43.0539 28.768 42.8301 28.9921 42.673C29.2161 42.5159 29.484 42.4335 29.7577 42.4375C31.495 42.4338 33.16 41.742 34.3885 40.5135C35.6169 39.285 36.3087 37.62 36.3125 35.8827C36.3085 35.609 36.3909 35.3411 36.548 35.1171C36.7051 34.893 36.9289 34.7242 37.1875 34.6347C37.3857 34.5646 37.5978 34.5432 37.806 34.5722C38.0142 34.6012 38.2124 34.6798 38.3839 34.8013C38.5555 34.9229 38.6953 35.0838 38.7916 35.2707C38.8879 35.4575 38.938 35.6648 38.9375 35.875C38.9349 38.3109 37.9661 40.6463 36.2437 42.3687C34.5212 44.0911 32.1859 45.0599 29.75 45.0625Z" fill="black"/>
</svg>
