<svg width="56" height="56" viewBox="0 0 56 56" fill="none" xmlns="http://www.w3.org/2000/svg">
<path d="M43.75 35C43.75 44.6655 37.6655 50.75 28 50.75C18.3345 50.75 12.25 44.6655 12.25 35C12.25 24.628 23.5408 10.6258 27.0036 6.57564C27.1268 6.43174 27.2797 6.31622 27.4518 6.23702C27.6239 6.15781 27.8111 6.1168 28.0005 6.1168C28.19 6.1168 28.3772 6.15781 28.5493 6.23702C28.7214 6.31622 28.8743 6.43174 28.9975 6.57564C32.4592 10.6258 43.75 24.628 43.75 35Z" stroke="black" stroke-width="1.5" stroke-miterlimit="10"/>
<path d="M37.625 35.875C37.625 37.9636 36.7953 39.9666 35.3185 41.4435C33.8416 42.9203 31.8386 43.75 29.75 43.75" stroke="black" stroke-width="1.5" stroke-linecap="round" stroke-linejoin="round"/>
</svg>
