<svg width="56" height="56" viewBox="0 0 56 56" fill="none" xmlns="http://www.w3.org/2000/svg">
<path d="M7.00002 22.7202C6.99423 23.075 7.0964 23.4231 7.29299 23.7185C7.48957 24.0138 7.77128 24.2424 8.10077 24.374L24.9025 31.0957L31.6243 47.8992C31.7541 48.2243 31.9784 48.5029 32.2682 48.6991C32.5581 48.8953 32.9 49.0001 33.25 49H33.278C33.6325 48.9944 33.9768 48.8813 34.2656 48.6757C34.5543 48.4701 34.7738 48.1816 34.895 47.8485L48.895 9.3485C49.0096 9.03529 49.0323 8.69586 48.9605 8.37018C48.8887 8.04449 48.7252 7.74612 48.4895 7.5102C48.2538 7.27428 47.9555 7.11063 47.6299 7.03853C47.3043 6.96643 46.9648 6.98889 46.6515 7.10325L8.15152 21.1032C7.81826 21.2248 7.52974 21.4446 7.32412 21.7336C7.11851 22.0227 7.00549 22.3673 7.00002 22.722V22.7202Z" fill="black"/>
</svg>
