<svg width="56" height="56" viewBox="0 0 56 56" fill="none" xmlns="http://www.w3.org/2000/svg">
<path d="M28 14C26.2694 14 24.5777 14.5132 23.1388 15.4746C21.6998 16.4361 20.5783 17.8027 19.9161 19.4015C19.2538 21.0004 19.0805 22.7597 19.4181 24.457C19.7557 26.1544 20.5891 27.7135 21.8128 28.9372C23.0365 30.1609 24.5956 30.9943 26.293 31.3319C27.9903 31.6695 29.7496 31.4962 31.3485 30.8339C32.9473 30.1717 34.3139 29.0502 35.2754 27.6112C36.2368 26.1723 36.75 24.4806 36.75 22.75C36.7473 20.4302 35.8246 18.2061 34.1842 16.5658C32.5439 14.9254 30.3198 14.0027 28 14ZM28 28C26.9616 28 25.9466 27.6921 25.0833 27.1152C24.2199 26.5383 23.547 25.7184 23.1496 24.7591C22.7523 23.7998 22.6483 22.7442 22.8509 21.7258C23.0534 20.7074 23.5535 19.7719 24.2877 19.0377C25.0219 18.3035 25.9574 17.8034 26.9758 17.6009C27.9942 17.3983 29.0498 17.5023 30.0091 17.8996C30.9684 18.297 31.7883 18.9699 32.3652 19.8333C32.9421 20.6966 33.25 21.7116 33.25 22.75C33.2484 24.1419 32.6948 25.4764 31.7106 26.4606C30.7264 27.4448 29.3919 27.9984 28 28ZM28 3.5C22.8964 3.50579 18.0034 5.53577 14.3946 9.14459C10.7858 12.7534 8.75579 17.6464 8.75 22.75C8.75 29.6179 11.9241 36.8985 17.9294 43.8047C20.6318 46.9251 23.6728 49.7354 26.9964 52.1837C27.2905 52.3896 27.6409 52.5001 28 52.5001C28.3591 52.5001 28.7095 52.3896 29.0036 52.1837C32.3272 49.7354 35.3682 46.9251 38.0706 43.8047C44.0757 36.8985 47.25 29.6181 47.25 22.75C47.2442 17.6464 45.2142 12.7534 41.6054 9.14459C37.9966 5.53577 33.1036 3.50579 28 3.5ZM28 48.5581C24.3834 45.7214 12.25 35.2693 12.25 22.75C12.25 18.5728 13.9094 14.5668 16.8631 11.6131C19.8168 8.65937 23.8228 7 28 7C32.1772 7 36.1832 8.65937 39.1369 11.6131C42.0906 14.5668 43.75 18.5728 43.75 22.75C43.75 35.2695 31.6159 45.722 28 48.5581Z" fill="black"/>
</svg>
