<svg width="56" height="56" viewBox="0 0 56 56" fill="none" xmlns="http://www.w3.org/2000/svg">
<path d="M9.33333 38.1733C9.00667 36.9133 9.75333 35.5833 11.0367 35.2567L16.3333 33.8333L12.4367 30.0067C11.5033 29.0733 11.5033 27.5567 12.4367 26.6C13.37 25.6667 14.9333 25.6667 15.8433 26.6L19.7167 30.45L21.0933 25.2C21.42 23.8933 22.75 23.1467 24.01 23.4967C25.3167 23.8233 26.0633 25.1533 25.6667 26.4367L24.3133 31.6867L29.5633 30.3333C29.8651 30.2381 30.1831 30.2058 30.4979 30.2385C30.8126 30.2713 31.1172 30.3683 31.3928 30.5237C31.6685 30.679 31.9093 30.8893 32.1003 31.1415C32.2914 31.3938 32.4285 31.6826 32.5033 31.99C32.8533 33.25 32.1067 34.58 30.8 34.9067L25.55 36.2833L29.4 40.1567C30.3333 41.0667 30.3333 42.63 29.4 43.5633C28.4667 44.4967 26.9267 44.4967 26.0167 43.5633L22.1667 39.6667L20.7433 44.9633C20.4167 46.27 19.0867 46.9933 17.8267 46.6667C16.52 46.34 15.7967 45.01 16.1233 43.7267L17.5 38.5L12.2733 39.8767C10.99 40.2033 9.66 39.48 9.33333 38.1733ZM2.33333 23.3333C2.33333 20.2391 3.56249 17.2717 5.75042 15.0838C7.93834 12.8958 10.9058 11.6667 14 11.6667C16.3333 6.18333 21.7 2.33333 28 2.33333C36.0033 2.33333 42.56 8.54 43.1667 16.4033L44.3333 16.3333C46.8087 16.3333 49.1827 17.3167 50.933 19.067C52.6833 20.8173 53.6667 23.1913 53.6667 25.6667C53.6667 28.142 52.6833 30.516 50.933 32.2663C49.1827 34.0167 46.8087 35 44.3333 35C43.7145 35 43.121 34.7542 42.6834 34.3166C42.2458 33.879 42 33.2855 42 32.6667C42 32.0478 42.2458 31.4543 42.6834 31.0167C43.121 30.5792 43.7145 30.3333 44.3333 30.3333C45.571 30.3333 46.758 29.8417 47.6332 28.9665C48.5083 28.0913 49 26.9043 49 25.6667C49 24.429 48.5083 23.242 47.6332 22.3668C46.758 21.4917 45.571 21 44.3333 21H39.6667V18.6667C39.6667 15.5725 38.4375 12.605 36.2496 10.4171C34.0617 8.22916 31.0942 7 28 7C22.1667 7 17.3833 11.2467 16.4733 16.7767C15.7033 16.4967 14.8633 16.3333 14 16.3333C12.1435 16.3333 10.363 17.0708 9.05025 18.3836C7.7375 19.6963 7 21.4768 7 23.3333C7 25.3167 7.81667 27.09 9.12333 28.3733C9.96333 29.2833 9.94 30.7067 9.05333 31.5933C8.83747 31.8096 8.58106 31.9813 8.29879 32.0983C8.01652 32.2154 7.71392 32.2757 7.40833 32.2757C7.10274 32.2757 6.80015 32.2154 6.51788 32.0983C6.2356 31.9813 5.9792 31.8096 5.76333 31.5933C4.67517 30.5107 3.8119 29.2236 3.22323 27.806C2.63456 26.3884 2.33212 24.8683 2.33333 23.3333ZM32.7367 47.67C32.97 48.58 33.8333 49.0933 34.79 48.86L38.5 47.8333L37.4733 51.5433C37.24 52.5 37.7533 53.3633 38.6633 53.5967C39.55 53.8533 40.4833 53.3167 40.7167 52.4067L41.6733 48.7433L44.4033 51.45C45.0333 52.1033 46.13 52.1033 46.7833 51.45C47.4367 50.7967 47.4367 49.7 46.7833 49.07L44.0767 46.34L47.74 45.3833C48.65 45.15 49.1867 44.2167 48.93 43.33C48.6967 42.42 47.8333 41.9067 46.8767 42.14L43.1667 43.1667L44.1933 39.4567C44.4267 38.5 43.9133 37.6367 43.0033 37.4033C42.7903 37.3437 42.5676 37.3272 42.3481 37.355C42.1287 37.3828 41.917 37.4543 41.7257 37.5652C41.5343 37.6761 41.367 37.8242 41.2338 38.0008C41.1006 38.1774 41.0041 38.3789 40.95 38.5933L39.9933 42.2567L37.2633 39.55C36.9469 39.236 36.5192 39.0597 36.0733 39.0597C35.6275 39.0597 35.1998 39.236 34.8833 39.55C34.23 40.2267 34.23 41.3 34.8833 41.93L37.59 44.66L33.9267 45.6167C33.0167 45.85 32.48 46.7833 32.7367 47.67Z" fill="black"/>
</svg>
